%TF.GenerationSoftware,KiCad,Pcbnew,7.0.2-0*%
%TF.CreationDate,2023-06-19T18:33:07-07:00*%
%TF.ProjectId,FrogBadge,46726f67-4261-4646-9765-2e6b69636164,1.1*%
%TF.SameCoordinates,Original*%
%TF.FileFunction,Legend,Bot*%
%TF.FilePolarity,Positive*%
%FSLAX46Y46*%
G04 Gerber Fmt 4.6, Leading zero omitted, Abs format (unit mm)*
G04 Created by KiCad (PCBNEW 7.0.2-0) date 2023-06-19 18:33:07*
%MOMM*%
%LPD*%
G01*
G04 APERTURE LIST*
%ADD10C,0.150000*%
%ADD11C,0.187500*%
G04 APERTURE END LIST*
D10*
X447802000Y-204343000D02*
X449834000Y-206375000D01*
X381762000Y-204343000D02*
X383794000Y-204343000D01*
X381762000Y-266319000D02*
X383794000Y-266319000D01*
X449834000Y-266319000D02*
X447802000Y-266319000D01*
X381762000Y-204343000D02*
X381762000Y-206375000D01*
X449834000Y-266319000D02*
X449834000Y-264287000D01*
X449834000Y-204343000D02*
X447802000Y-204343000D01*
X473764000Y-286258000D02*
G75*
G03*
X473764000Y-286258000I-12500000J0D01*
G01*
X381762000Y-266319000D02*
X381762000Y-264287000D01*
X449834000Y-204343000D02*
X449834000Y-206375000D01*
D11*
X353468857Y-296834214D02*
X353718857Y-296477071D01*
X353897428Y-296834214D02*
X353897428Y-296084214D01*
X353897428Y-296084214D02*
X353611714Y-296084214D01*
X353611714Y-296084214D02*
X353540285Y-296119928D01*
X353540285Y-296119928D02*
X353504571Y-296155642D01*
X353504571Y-296155642D02*
X353468857Y-296227071D01*
X353468857Y-296227071D02*
X353468857Y-296334214D01*
X353468857Y-296334214D02*
X353504571Y-296405642D01*
X353504571Y-296405642D02*
X353540285Y-296441357D01*
X353540285Y-296441357D02*
X353611714Y-296477071D01*
X353611714Y-296477071D02*
X353897428Y-296477071D01*
X352861714Y-296798500D02*
X352933142Y-296834214D01*
X352933142Y-296834214D02*
X353076000Y-296834214D01*
X353076000Y-296834214D02*
X353147428Y-296798500D01*
X353147428Y-296798500D02*
X353183142Y-296727071D01*
X353183142Y-296727071D02*
X353183142Y-296441357D01*
X353183142Y-296441357D02*
X353147428Y-296369928D01*
X353147428Y-296369928D02*
X353076000Y-296334214D01*
X353076000Y-296334214D02*
X352933142Y-296334214D01*
X352933142Y-296334214D02*
X352861714Y-296369928D01*
X352861714Y-296369928D02*
X352826000Y-296441357D01*
X352826000Y-296441357D02*
X352826000Y-296512785D01*
X352826000Y-296512785D02*
X353183142Y-296584214D01*
X352576000Y-296334214D02*
X352397428Y-296834214D01*
X352397428Y-296834214D02*
X352218857Y-296334214D01*
X351933142Y-296762785D02*
X351897428Y-296798500D01*
X351897428Y-296798500D02*
X351933142Y-296834214D01*
X351933142Y-296834214D02*
X351968856Y-296798500D01*
X351968856Y-296798500D02*
X351933142Y-296762785D01*
X351933142Y-296762785D02*
X351933142Y-296834214D01*
X350611713Y-296834214D02*
X351040284Y-296834214D01*
X350825999Y-296834214D02*
X350825999Y-296084214D01*
X350825999Y-296084214D02*
X350897427Y-296191357D01*
X350897427Y-296191357D02*
X350968856Y-296262785D01*
X350968856Y-296262785D02*
X351040284Y-296298500D01*
X350290284Y-296762785D02*
X350254570Y-296798500D01*
X350254570Y-296798500D02*
X350290284Y-296834214D01*
X350290284Y-296834214D02*
X350325998Y-296798500D01*
X350325998Y-296798500D02*
X350290284Y-296762785D01*
X350290284Y-296762785D02*
X350290284Y-296834214D01*
X349540284Y-296834214D02*
X349968855Y-296834214D01*
X349754570Y-296834214D02*
X349754570Y-296084214D01*
X349754570Y-296084214D02*
X349825998Y-296191357D01*
X349825998Y-296191357D02*
X349897427Y-296262785D01*
X349897427Y-296262785D02*
X349968855Y-296298500D01*
D10*
X418274571Y-235192809D02*
X418131714Y-235240428D01*
X418131714Y-235240428D02*
X418084095Y-235288047D01*
X418084095Y-235288047D02*
X418036476Y-235383285D01*
X418036476Y-235383285D02*
X418036476Y-235526142D01*
X418036476Y-235526142D02*
X418084095Y-235621380D01*
X418084095Y-235621380D02*
X418131714Y-235669000D01*
X418131714Y-235669000D02*
X418226952Y-235716619D01*
X418226952Y-235716619D02*
X418607904Y-235716619D01*
X418607904Y-235716619D02*
X418607904Y-234716619D01*
X418607904Y-234716619D02*
X418274571Y-234716619D01*
X418274571Y-234716619D02*
X418179333Y-234764238D01*
X418179333Y-234764238D02*
X418131714Y-234811857D01*
X418131714Y-234811857D02*
X418084095Y-234907095D01*
X418084095Y-234907095D02*
X418084095Y-235002333D01*
X418084095Y-235002333D02*
X418131714Y-235097571D01*
X418131714Y-235097571D02*
X418179333Y-235145190D01*
X418179333Y-235145190D02*
X418274571Y-235192809D01*
X418274571Y-235192809D02*
X418607904Y-235192809D01*
X417655523Y-235430904D02*
X417179333Y-235430904D01*
X417750761Y-235716619D02*
X417417428Y-234716619D01*
X417417428Y-234716619D02*
X417084095Y-235716619D01*
X416893618Y-234716619D02*
X416322190Y-234716619D01*
X416607904Y-235716619D02*
X416607904Y-234716619D01*
X416131713Y-234716619D02*
X415560285Y-234716619D01*
X415845999Y-235716619D02*
X415845999Y-234716619D01*
X415226951Y-235192809D02*
X414893618Y-235192809D01*
X414750761Y-235716619D02*
X415226951Y-235716619D01*
X415226951Y-235716619D02*
X415226951Y-234716619D01*
X415226951Y-234716619D02*
X414750761Y-234716619D01*
X413750761Y-235716619D02*
X414084094Y-235240428D01*
X414322189Y-235716619D02*
X414322189Y-234716619D01*
X414322189Y-234716619D02*
X413941237Y-234716619D01*
X413941237Y-234716619D02*
X413845999Y-234764238D01*
X413845999Y-234764238D02*
X413798380Y-234811857D01*
X413798380Y-234811857D02*
X413750761Y-234907095D01*
X413750761Y-234907095D02*
X413750761Y-235049952D01*
X413750761Y-235049952D02*
X413798380Y-235145190D01*
X413798380Y-235145190D02*
X413845999Y-235192809D01*
X413845999Y-235192809D02*
X413941237Y-235240428D01*
X413941237Y-235240428D02*
X414322189Y-235240428D01*
X413131713Y-235240428D02*
X413131713Y-235716619D01*
X413465046Y-234716619D02*
X413131713Y-235240428D01*
X413131713Y-235240428D02*
X412798380Y-234716619D01*
X379206095Y-310138666D02*
X379968000Y-310138666D01*
X379587047Y-310519619D02*
X379587047Y-309757714D01*
X462549904Y-286897619D02*
X462549904Y-285897619D01*
X462549904Y-285897619D02*
X461978476Y-286897619D01*
X461978476Y-286897619D02*
X461978476Y-285897619D01*
X461168952Y-286373809D02*
X461502285Y-286373809D01*
X461502285Y-286897619D02*
X461502285Y-285897619D01*
X461502285Y-285897619D02*
X461026095Y-285897619D01*
X460073714Y-286802380D02*
X460121333Y-286850000D01*
X460121333Y-286850000D02*
X460264190Y-286897619D01*
X460264190Y-286897619D02*
X460359428Y-286897619D01*
X460359428Y-286897619D02*
X460502285Y-286850000D01*
X460502285Y-286850000D02*
X460597523Y-286754761D01*
X460597523Y-286754761D02*
X460645142Y-286659523D01*
X460645142Y-286659523D02*
X460692761Y-286469047D01*
X460692761Y-286469047D02*
X460692761Y-286326190D01*
X460692761Y-286326190D02*
X460645142Y-286135714D01*
X460645142Y-286135714D02*
X460597523Y-286040476D01*
X460597523Y-286040476D02*
X460502285Y-285945238D01*
X460502285Y-285945238D02*
X460359428Y-285897619D01*
X460359428Y-285897619D02*
X460264190Y-285897619D01*
X460264190Y-285897619D02*
X460121333Y-285945238D01*
X460121333Y-285945238D02*
X460073714Y-285992857D01*
%TO.C,REF\u002A\u002A*%
G36*
X350559061Y-301789875D02*
G01*
X350716370Y-301810592D01*
X350832517Y-301858635D01*
X350924647Y-301942481D01*
X351009906Y-302070604D01*
X351066154Y-302201725D01*
X351085390Y-302383220D01*
X351038688Y-302558476D01*
X350928301Y-302720453D01*
X350756483Y-302862112D01*
X350691801Y-302893316D01*
X350538173Y-302923785D01*
X350364857Y-302918619D01*
X350197225Y-302879751D01*
X350060649Y-302809113D01*
X350027491Y-302782653D01*
X349910871Y-302655085D01*
X349847312Y-302504512D01*
X349828069Y-302312252D01*
X349828070Y-302308295D01*
X349832054Y-302197828D01*
X349851527Y-302119505D01*
X349898098Y-302046355D01*
X349983375Y-301951409D01*
X350138681Y-301787035D01*
X350436254Y-301787035D01*
X350559061Y-301789875D01*
G37*
G36*
X352760488Y-301786496D02*
G01*
X352951814Y-301857388D01*
X353102079Y-301984076D01*
X353142021Y-302044582D01*
X353196304Y-302187094D01*
X353222393Y-302345014D01*
X353212817Y-302484575D01*
X353191985Y-302539166D01*
X353116874Y-302655278D01*
X353011307Y-302770156D01*
X352895079Y-302860389D01*
X352860065Y-302878060D01*
X352726069Y-302913492D01*
X352566019Y-302925519D01*
X352409851Y-302913358D01*
X352287502Y-302876231D01*
X352269504Y-302865986D01*
X352178130Y-302799374D01*
X352087793Y-302716276D01*
X352071156Y-302698525D01*
X352022929Y-302637874D01*
X351996341Y-302574015D01*
X351985044Y-302484675D01*
X351982690Y-302347586D01*
X351982793Y-302306612D01*
X351986837Y-302183903D01*
X352001453Y-302103228D01*
X352032988Y-302042316D01*
X352087793Y-301978897D01*
X352113162Y-301952929D01*
X352249530Y-301843489D01*
X352396275Y-301786124D01*
X352580000Y-301769517D01*
X352760488Y-301786496D01*
G37*
G36*
X347290033Y-308215862D02*
G01*
X347294995Y-308224509D01*
X347294620Y-308303448D01*
X347294507Y-308327108D01*
X347287727Y-308338483D01*
X347256401Y-308391035D01*
X347235517Y-308426069D01*
X347174559Y-308473058D01*
X347074400Y-308491337D01*
X346963037Y-308441600D01*
X346906631Y-308372813D01*
X347102864Y-308372813D01*
X347107057Y-308414391D01*
X347117595Y-308419872D01*
X347130414Y-308391035D01*
X347127885Y-308372487D01*
X347107057Y-308367678D01*
X347102864Y-308372813D01*
X346906631Y-308372813D01*
X346901534Y-308366597D01*
X346897468Y-308338483D01*
X346955241Y-308338483D01*
X346972759Y-308356000D01*
X346990276Y-308338483D01*
X346972759Y-308320966D01*
X346955241Y-308338483D01*
X346897468Y-308338483D01*
X346892401Y-308303448D01*
X347200483Y-308303448D01*
X347218000Y-308320966D01*
X347235517Y-308303448D01*
X347218000Y-308285931D01*
X347200483Y-308303448D01*
X346892401Y-308303448D01*
X346887573Y-308270060D01*
X346899766Y-308233379D01*
X347060345Y-308233379D01*
X347077862Y-308250897D01*
X347095379Y-308233379D01*
X347077862Y-308215862D01*
X347060345Y-308233379D01*
X346899766Y-308233379D01*
X346918923Y-308175749D01*
X346931697Y-308162606D01*
X346962727Y-308162606D01*
X346966919Y-308204184D01*
X346977457Y-308209665D01*
X346982802Y-308197641D01*
X347207968Y-308197641D01*
X347211572Y-308233379D01*
X347212161Y-308239218D01*
X347222699Y-308244699D01*
X347235517Y-308215862D01*
X347232989Y-308197315D01*
X347212161Y-308192506D01*
X347207968Y-308197641D01*
X346982802Y-308197641D01*
X346990276Y-308180828D01*
X346987747Y-308162280D01*
X346966919Y-308157471D01*
X346962727Y-308162606D01*
X346931697Y-308162606D01*
X346988519Y-308104144D01*
X347089292Y-308075724D01*
X347151918Y-308083760D01*
X347244844Y-308137113D01*
X347269929Y-308180828D01*
X347290033Y-308215862D01*
G37*
G36*
X353754073Y-303394244D02*
G01*
X353851232Y-303437038D01*
X353873170Y-303455019D01*
X353917375Y-303534045D01*
X353905121Y-303615389D01*
X353837743Y-303675438D01*
X353835947Y-303676247D01*
X353790214Y-303716641D01*
X353754468Y-303798567D01*
X353722410Y-303936269D01*
X353713415Y-303981238D01*
X353640400Y-304236451D01*
X353530030Y-304467697D01*
X353372968Y-304691374D01*
X353159874Y-304923878D01*
X353148879Y-304934750D01*
X352907125Y-305150847D01*
X352669941Y-305313054D01*
X352418050Y-305432564D01*
X352132173Y-305520571D01*
X351892642Y-305563286D01*
X351600706Y-305582998D01*
X351312031Y-305572812D01*
X351056514Y-305532400D01*
X351041202Y-305528619D01*
X350707934Y-305416865D01*
X350391699Y-305256870D01*
X350105485Y-305057613D01*
X349862275Y-304828072D01*
X349675056Y-304577227D01*
X349630941Y-304498889D01*
X349544639Y-304317205D01*
X349473597Y-304130504D01*
X349425406Y-303960073D01*
X349407655Y-303827203D01*
X349407553Y-303817091D01*
X349388649Y-303727842D01*
X349328828Y-303678446D01*
X349304081Y-303665272D01*
X349246976Y-303596018D01*
X349247765Y-303512444D01*
X349308354Y-303437038D01*
X349381827Y-303400974D01*
X349494655Y-303380208D01*
X349613244Y-303385115D01*
X349722470Y-303411640D01*
X349807207Y-303455727D01*
X349852332Y-303513318D01*
X349842720Y-303580357D01*
X349806411Y-303623788D01*
X349728858Y-303678446D01*
X349712802Y-303686365D01*
X349670214Y-303723100D01*
X349657281Y-303780823D01*
X349673569Y-303873897D01*
X349718645Y-304016683D01*
X349775638Y-304169818D01*
X349876156Y-304378749D01*
X350002250Y-304564516D01*
X350171606Y-304755986D01*
X350274803Y-304857693D01*
X350488662Y-305030905D01*
X350720743Y-305163597D01*
X350996716Y-305271815D01*
X351004577Y-305274405D01*
X351116606Y-305308083D01*
X351218362Y-305329040D01*
X351329884Y-305339160D01*
X351471208Y-305340327D01*
X351662371Y-305334428D01*
X351737315Y-305331192D01*
X351922506Y-305319109D01*
X352062392Y-305301170D01*
X352175532Y-305274418D01*
X352280483Y-305235895D01*
X352315645Y-305220640D01*
X352642680Y-305042149D01*
X352926248Y-304818827D01*
X353160307Y-304557305D01*
X353338815Y-304264211D01*
X353455730Y-303946177D01*
X353482034Y-303836889D01*
X353498675Y-303753615D01*
X353500734Y-303719654D01*
X353388752Y-303653558D01*
X353316341Y-303578015D01*
X353303593Y-303525095D01*
X353338530Y-303466246D01*
X353416181Y-303419747D01*
X353521412Y-303389588D01*
X353639088Y-303379757D01*
X353754073Y-303394244D01*
G37*
G36*
X358392433Y-304370653D02*
G01*
X358407112Y-304498394D01*
X358416764Y-304640263D01*
X358422445Y-304810245D01*
X358425208Y-305022324D01*
X358426111Y-305290483D01*
X358424260Y-305567279D01*
X358412659Y-305921994D01*
X358388248Y-306236101D01*
X358348513Y-306526736D01*
X358290938Y-306811037D01*
X358213007Y-307106138D01*
X358112207Y-307429176D01*
X357985424Y-307785050D01*
X357757803Y-308309512D01*
X357749661Y-308324372D01*
X357490317Y-308797684D01*
X357175598Y-309261154D01*
X356806274Y-309711507D01*
X356374977Y-310160329D01*
X356107662Y-310409326D01*
X355671170Y-310766587D01*
X355220027Y-311072275D01*
X354737631Y-311337203D01*
X354207379Y-311572188D01*
X354004942Y-311647144D01*
X353674338Y-311751957D01*
X353319914Y-311847495D01*
X352968854Y-311926611D01*
X352648345Y-311982156D01*
X352555073Y-311994040D01*
X352152678Y-312024280D01*
X351711050Y-312028493D01*
X351250471Y-312007467D01*
X350791223Y-311961993D01*
X350353586Y-311892859D01*
X350170458Y-311852207D01*
X349807490Y-311746396D01*
X349417694Y-311605127D01*
X349017494Y-311435575D01*
X348623311Y-311244916D01*
X348251569Y-311040325D01*
X347918690Y-310828978D01*
X347862383Y-310789080D01*
X347797820Y-310738345D01*
X349337586Y-310738345D01*
X349701069Y-310738345D01*
X349804506Y-310738769D01*
X349960735Y-310740993D01*
X350087811Y-310744695D01*
X350165276Y-310749387D01*
X350167182Y-310749586D01*
X350243115Y-310752789D01*
X350370926Y-310753627D01*
X350533242Y-310752133D01*
X350712690Y-310748340D01*
X351159379Y-310736251D01*
X351159379Y-310527091D01*
X351159379Y-310317931D01*
X350826552Y-310317931D01*
X350493724Y-310317931D01*
X350493724Y-310206018D01*
X351369586Y-310206018D01*
X351374011Y-310278481D01*
X351426438Y-310440674D01*
X351539754Y-310571569D01*
X351716191Y-310674182D01*
X351730679Y-310679866D01*
X351849099Y-310709356D01*
X352015911Y-310733480D01*
X352046599Y-310736251D01*
X352212797Y-310751258D01*
X352421438Y-310761710D01*
X352623515Y-310763858D01*
X352800709Y-310756722D01*
X352934703Y-310739323D01*
X353072583Y-310699229D01*
X353266347Y-310598274D01*
X353414230Y-310460328D01*
X353508574Y-310293386D01*
X353541724Y-310105443D01*
X353541724Y-310002621D01*
X353303728Y-310002621D01*
X353065731Y-310002621D01*
X353032210Y-310116483D01*
X352993028Y-310201410D01*
X352916609Y-310272582D01*
X352797999Y-310319369D01*
X352628414Y-310345052D01*
X352399069Y-310352911D01*
X352295312Y-310352373D01*
X352159780Y-310347664D01*
X352068408Y-310335872D01*
X352004755Y-310314325D01*
X351952380Y-310280354D01*
X351944318Y-310273792D01*
X351874799Y-310180767D01*
X351867554Y-310081030D01*
X351924138Y-309990533D01*
X351967701Y-309963545D01*
X352041277Y-309944962D01*
X352156315Y-309935313D01*
X352327034Y-309932552D01*
X352665862Y-309932552D01*
X352665862Y-309774897D01*
X352665862Y-309617241D01*
X352384461Y-309617241D01*
X352249350Y-309612828D01*
X352091188Y-309594768D01*
X351979282Y-309565524D01*
X351900361Y-309525756D01*
X351867061Y-309478307D01*
X351866546Y-309399110D01*
X351882358Y-309323724D01*
X351925952Y-309276111D01*
X352017724Y-309238107D01*
X352104236Y-309218459D01*
X352276784Y-309203082D01*
X352496981Y-309203073D01*
X352578125Y-309206870D01*
X352779144Y-309230802D01*
X352920062Y-309275446D01*
X353006709Y-309343291D01*
X353044919Y-309436825D01*
X353045955Y-309443302D01*
X353059891Y-309480501D01*
X353096080Y-309501225D01*
X353170447Y-309510197D01*
X353298919Y-309512138D01*
X353362544Y-309511991D01*
X353463958Y-309508621D01*
X353517394Y-309496476D01*
X353538200Y-309469947D01*
X353541724Y-309423427D01*
X353538104Y-309371521D01*
X353485724Y-309210704D01*
X353380761Y-309058637D01*
X353235695Y-308930489D01*
X353063005Y-308841433D01*
X353000880Y-308825436D01*
X352862534Y-308808400D01*
X352665031Y-308799309D01*
X352403103Y-308797813D01*
X352386236Y-308797951D01*
X352127502Y-308804673D01*
X351926111Y-308821828D01*
X351770362Y-308852668D01*
X351648551Y-308900442D01*
X351548977Y-308968400D01*
X351459936Y-309059794D01*
X351428016Y-309099414D01*
X351386800Y-309170153D01*
X351372806Y-309250170D01*
X351378125Y-309369393D01*
X351382228Y-309413418D01*
X351401689Y-309519072D01*
X351441096Y-309592909D01*
X351513872Y-309664062D01*
X351633586Y-309765411D01*
X351501586Y-309897412D01*
X351465598Y-309934298D01*
X351403028Y-310013659D01*
X351375639Y-310093442D01*
X351369586Y-310206018D01*
X350493724Y-310206018D01*
X350493724Y-309866878D01*
X350493724Y-309415825D01*
X350639241Y-309487821D01*
X350689037Y-309509187D01*
X350830091Y-309551466D01*
X350972068Y-309575350D01*
X351159379Y-309590884D01*
X351159379Y-309376338D01*
X351159379Y-309161793D01*
X350992965Y-309161739D01*
X350937190Y-309159625D01*
X350759988Y-309121642D01*
X350619221Y-309041443D01*
X350528759Y-308926069D01*
X350515525Y-308898200D01*
X350484667Y-308849645D01*
X350441178Y-308824155D01*
X350365912Y-308814190D01*
X350239724Y-308812207D01*
X350003241Y-308811448D01*
X350003241Y-309564690D01*
X350003241Y-310317931D01*
X349670414Y-310317931D01*
X349337586Y-310317931D01*
X349337586Y-310528138D01*
X349337586Y-310738345D01*
X347797820Y-310738345D01*
X347628376Y-310605191D01*
X347372253Y-310380102D01*
X347107311Y-310127316D01*
X346846845Y-309860334D01*
X346604151Y-309592660D01*
X346392525Y-309337795D01*
X346225262Y-309109241D01*
X346104033Y-308918169D01*
X345943337Y-308640248D01*
X345786291Y-308343915D01*
X345642325Y-308047912D01*
X345520873Y-307770977D01*
X345431364Y-307531850D01*
X345273166Y-306982836D01*
X345138568Y-306299377D01*
X345073263Y-305618654D01*
X345077117Y-304942685D01*
X345123244Y-304519113D01*
X345566679Y-304519113D01*
X345570207Y-304725777D01*
X345627522Y-304924406D01*
X345736541Y-305100545D01*
X345895183Y-305239739D01*
X346037451Y-305310251D01*
X346227642Y-305343068D01*
X346418685Y-305305914D01*
X346447090Y-305293498D01*
X346557401Y-305221125D01*
X346666142Y-305120598D01*
X346753289Y-305012404D01*
X346798814Y-304917030D01*
X346818760Y-304847453D01*
X346836938Y-304817517D01*
X346846218Y-304821396D01*
X346908818Y-304851344D01*
X347025310Y-304908479D01*
X347189900Y-304989918D01*
X347396791Y-305092775D01*
X347640191Y-305214169D01*
X347914304Y-305351216D01*
X348213336Y-305501032D01*
X348531492Y-305660735D01*
X350209779Y-306503952D01*
X350414153Y-306390736D01*
X350415306Y-306390098D01*
X350545495Y-306325074D01*
X350639224Y-306297481D01*
X350715214Y-306301788D01*
X350777369Y-306328249D01*
X350791894Y-306358425D01*
X350769436Y-306377636D01*
X350695514Y-306426663D01*
X350584072Y-306494380D01*
X350448875Y-306572208D01*
X350448605Y-306572360D01*
X350310984Y-306649814D01*
X350123451Y-306755592D01*
X349897017Y-306883465D01*
X349642691Y-307027207D01*
X349371483Y-307180588D01*
X349094402Y-307337380D01*
X348822458Y-307491354D01*
X348566662Y-307636283D01*
X348338021Y-307765939D01*
X348147547Y-307874092D01*
X348029466Y-307939394D01*
X347891507Y-308008719D01*
X347802417Y-308043169D01*
X347766875Y-308040696D01*
X347763129Y-308030893D01*
X347707784Y-307946517D01*
X347617341Y-307850232D01*
X347513723Y-307763107D01*
X347418848Y-307706210D01*
X347268368Y-307664845D01*
X347109906Y-307659815D01*
X346979214Y-307694626D01*
X346973433Y-307697657D01*
X346852956Y-307782567D01*
X346736620Y-307897328D01*
X346654320Y-308012674D01*
X346639235Y-308048736D01*
X346612987Y-308178775D01*
X346607021Y-308333948D01*
X346621268Y-308483775D01*
X346655659Y-308597781D01*
X346731653Y-308710057D01*
X346868009Y-308831302D01*
X347028212Y-308911832D01*
X347195138Y-308943741D01*
X347351660Y-308919121D01*
X347393410Y-308903609D01*
X347459661Y-308884585D01*
X347471321Y-308897427D01*
X347434973Y-308944110D01*
X347384140Y-309014046D01*
X347314125Y-309180656D01*
X347275944Y-309380637D01*
X347272608Y-309593833D01*
X347307128Y-309800084D01*
X347372450Y-309947388D01*
X347486358Y-310093165D01*
X347623330Y-310196569D01*
X347688685Y-310223578D01*
X347845084Y-310240228D01*
X347998146Y-310197508D01*
X348136636Y-310102091D01*
X348249322Y-309960647D01*
X348324969Y-309779850D01*
X348338048Y-309707764D01*
X348347484Y-309557960D01*
X348344504Y-309387902D01*
X348329989Y-309227036D01*
X348304816Y-309104807D01*
X348300258Y-309070702D01*
X348317889Y-309033957D01*
X348368540Y-308989660D01*
X348461903Y-308929504D01*
X348607665Y-308845184D01*
X348726243Y-308778063D01*
X348922858Y-308666776D01*
X349130480Y-308549267D01*
X349320069Y-308441970D01*
X349410903Y-308390582D01*
X349635355Y-308263693D01*
X349909874Y-308108590D01*
X350227135Y-307929407D01*
X350579812Y-307730277D01*
X350960582Y-307515333D01*
X351362118Y-307288707D01*
X351383332Y-307276736D01*
X351754965Y-307276736D01*
X351766234Y-307285583D01*
X351831871Y-307323482D01*
X351951165Y-307387837D01*
X352118443Y-307475719D01*
X352328032Y-307584199D01*
X352574259Y-307710347D01*
X352851452Y-307851233D01*
X353153937Y-308003929D01*
X353476041Y-308165504D01*
X355197117Y-309026182D01*
X355107373Y-309120264D01*
X355098334Y-309129898D01*
X355007378Y-309258076D01*
X354957993Y-309409083D01*
X354943103Y-309603745D01*
X354970711Y-309807915D01*
X355054756Y-310001721D01*
X355141618Y-310105443D01*
X355186982Y-310159613D01*
X355359037Y-310268249D01*
X355453466Y-310300123D01*
X355639564Y-310313570D01*
X355817593Y-310257617D01*
X355988449Y-310132072D01*
X356025465Y-310094672D01*
X356158718Y-309908617D01*
X356228359Y-309707308D01*
X356232514Y-309499427D01*
X356169310Y-309293658D01*
X356151840Y-309256926D01*
X356109448Y-309151409D01*
X356107784Y-309090825D01*
X356150469Y-309063233D01*
X356241119Y-309056690D01*
X356310653Y-309052177D01*
X356488946Y-308996756D01*
X356642679Y-308886190D01*
X356763200Y-308730554D01*
X356841858Y-308539923D01*
X356870000Y-308324372D01*
X356869913Y-308307951D01*
X356851048Y-308123785D01*
X356792367Y-307975251D01*
X356683920Y-307836252D01*
X356642940Y-307795064D01*
X356507942Y-307690244D01*
X356363754Y-307635839D01*
X356183562Y-307620276D01*
X356153531Y-307620357D01*
X356053382Y-307625515D01*
X355981749Y-307647169D01*
X355913305Y-307697000D01*
X355822719Y-307786690D01*
X355743164Y-307872148D01*
X355666959Y-307961466D01*
X355623005Y-308022304D01*
X355612205Y-308036253D01*
X355593157Y-308044329D01*
X355561177Y-308042582D01*
X355510765Y-308028572D01*
X355436419Y-307999860D01*
X355332636Y-307954004D01*
X355193915Y-307888567D01*
X355014754Y-307801106D01*
X354789653Y-307689184D01*
X354513108Y-307550359D01*
X354179618Y-307382192D01*
X352774536Y-306672879D01*
X352264751Y-306960763D01*
X352138210Y-307033104D01*
X351985644Y-307122994D01*
X351864202Y-307197723D01*
X351783953Y-307251051D01*
X351754965Y-307276736D01*
X351383332Y-307276736D01*
X351777094Y-307054532D01*
X352198187Y-306816942D01*
X352618070Y-306580069D01*
X353029419Y-306348046D01*
X353424908Y-306125006D01*
X353797211Y-305915082D01*
X354139004Y-305722407D01*
X354442962Y-305551114D01*
X354701758Y-305405336D01*
X354908069Y-305289206D01*
X355108944Y-305176087D01*
X355353285Y-305038188D01*
X355576596Y-304911826D01*
X355770861Y-304801554D01*
X355928067Y-304711921D01*
X356040198Y-304647480D01*
X356099241Y-304612781D01*
X356155218Y-304579440D01*
X356229386Y-304544123D01*
X356265144Y-304548064D01*
X356274414Y-304589692D01*
X356298355Y-304653811D01*
X356365122Y-304741897D01*
X356457383Y-304833741D01*
X356557709Y-304912108D01*
X356648671Y-304959766D01*
X356706327Y-304975496D01*
X356899050Y-304988955D01*
X357088119Y-304950507D01*
X357248000Y-304864223D01*
X357271205Y-304844997D01*
X357406667Y-304690313D01*
X357490803Y-304513174D01*
X357526573Y-304324434D01*
X357516937Y-304134949D01*
X357464856Y-303955574D01*
X357373290Y-303797164D01*
X357245199Y-303670574D01*
X357083545Y-303586660D01*
X356891288Y-303556276D01*
X356733925Y-303556276D01*
X356819057Y-303407379D01*
X356827040Y-303392770D01*
X356883404Y-303231279D01*
X356906545Y-303043782D01*
X356895269Y-302858824D01*
X356848385Y-302704950D01*
X356766274Y-302568816D01*
X356630932Y-302432487D01*
X356464052Y-302354750D01*
X356256897Y-302330069D01*
X356092622Y-302344577D01*
X355919917Y-302408420D01*
X355779516Y-302528796D01*
X355661840Y-302711851D01*
X355623824Y-302832885D01*
X355608476Y-302997136D01*
X355618082Y-303171571D01*
X355651097Y-303330442D01*
X355705979Y-303448003D01*
X355784540Y-303554262D01*
X355705408Y-303603537D01*
X355701789Y-303605786D01*
X355597417Y-303668319D01*
X355461575Y-303746550D01*
X355305812Y-303834190D01*
X355141679Y-303924951D01*
X354980725Y-304012546D01*
X354834500Y-304090688D01*
X354714553Y-304153087D01*
X354632433Y-304193456D01*
X354599692Y-304205508D01*
X354598164Y-304202762D01*
X354603038Y-304155391D01*
X354627974Y-304074823D01*
X354631923Y-304062497D01*
X354649114Y-303971308D01*
X354665365Y-303830750D01*
X354679004Y-303657614D01*
X354688358Y-303468690D01*
X354688960Y-303451192D01*
X354694200Y-303239695D01*
X354692518Y-303076110D01*
X354682454Y-302939946D01*
X354662550Y-302810716D01*
X354631347Y-302667931D01*
X354574528Y-302454676D01*
X354436230Y-302075266D01*
X354254735Y-301733474D01*
X354021242Y-301414062D01*
X353726950Y-301101790D01*
X353534656Y-300929430D01*
X353241066Y-300714521D01*
X352923876Y-300542339D01*
X352560759Y-300399437D01*
X352517745Y-300385074D01*
X352376157Y-300341509D01*
X352249631Y-300311655D01*
X352116884Y-300292142D01*
X351956633Y-300279598D01*
X351747597Y-300270654D01*
X351724792Y-300269883D01*
X351518005Y-300264995D01*
X351357687Y-300267162D01*
X351222463Y-300278022D01*
X351090960Y-300299211D01*
X350941804Y-300332366D01*
X350690445Y-300403218D01*
X350261517Y-300576908D01*
X349869234Y-300805857D01*
X349518468Y-301085907D01*
X349214091Y-301412900D01*
X348960975Y-301782677D01*
X348763993Y-302191081D01*
X348678119Y-302425321D01*
X348617007Y-302637491D01*
X348578899Y-302845272D01*
X348559318Y-303073265D01*
X348553785Y-303346069D01*
X348557663Y-303581505D01*
X348574231Y-303809063D01*
X348607866Y-304014258D01*
X348662869Y-304222303D01*
X348743543Y-304458414D01*
X348768244Y-304533122D01*
X348784603Y-304612719D01*
X348774547Y-304642345D01*
X348741557Y-304629324D01*
X348655952Y-304589523D01*
X348529127Y-304528344D01*
X348372048Y-304451274D01*
X348195681Y-304363802D01*
X348010991Y-304271413D01*
X347828943Y-304179594D01*
X347660504Y-304093833D01*
X347516639Y-304019617D01*
X347408313Y-303962433D01*
X347346493Y-303927767D01*
X347344317Y-303926262D01*
X347337210Y-303877564D01*
X347380712Y-303783297D01*
X347385121Y-303775595D01*
X347439026Y-303631982D01*
X347469414Y-303454511D01*
X347473154Y-303274324D01*
X347447116Y-303122563D01*
X347379419Y-302980173D01*
X347263718Y-302834038D01*
X347127980Y-302731707D01*
X347096470Y-302718161D01*
X346964734Y-302689679D01*
X346807007Y-302682443D01*
X346654209Y-302696453D01*
X346537261Y-302731707D01*
X346418455Y-302817734D01*
X346298945Y-302959669D01*
X346218125Y-303122563D01*
X346215930Y-303129438D01*
X346191462Y-303284352D01*
X346196943Y-303465952D01*
X346229212Y-303643005D01*
X346285107Y-303784277D01*
X346357292Y-303906621D01*
X346199079Y-303906621D01*
X346028701Y-303927768D01*
X345878403Y-303999887D01*
X345735709Y-304132095D01*
X345729305Y-304139496D01*
X345619018Y-304318868D01*
X345566679Y-304519113D01*
X345123244Y-304519113D01*
X345149993Y-304273486D01*
X345291756Y-303613074D01*
X345502270Y-302963465D01*
X345781400Y-302326677D01*
X345984700Y-301950159D01*
X346347483Y-301395128D01*
X346763029Y-300880077D01*
X347226454Y-300408948D01*
X347732874Y-299985679D01*
X348277406Y-299614212D01*
X348855165Y-299298486D01*
X349461267Y-299042441D01*
X350090828Y-298850019D01*
X350221567Y-298817786D01*
X350394993Y-298777182D01*
X350548567Y-298745663D01*
X350695135Y-298721857D01*
X350847543Y-298704394D01*
X351018637Y-298691904D01*
X351221261Y-298683015D01*
X351468261Y-298676356D01*
X351772483Y-298670557D01*
X351889686Y-298668790D01*
X352134243Y-298667787D01*
X352333890Y-298672251D01*
X352506395Y-298683138D01*
X352669521Y-298701403D01*
X352841034Y-298728000D01*
X353005730Y-298757218D01*
X353364003Y-298830618D01*
X353683270Y-298913417D01*
X353985508Y-299012497D01*
X354292694Y-299134736D01*
X354626804Y-299287013D01*
X354669959Y-299307749D01*
X355077386Y-299517493D01*
X355438665Y-299733561D01*
X355773605Y-299969814D01*
X356102014Y-300240112D01*
X356443702Y-300558315D01*
X356862291Y-301004890D01*
X357272930Y-301537157D01*
X357624625Y-302106334D01*
X357917993Y-302713565D01*
X358153654Y-303359992D01*
X358332226Y-304046759D01*
X358343768Y-304101622D01*
X358371670Y-304243057D01*
X358384912Y-304324434D01*
X358392433Y-304370653D01*
G37*
G36*
X357886000Y-293708667D02*
G01*
X357886000Y-294470667D01*
X357124000Y-294470667D01*
X356362000Y-294470667D01*
X356362000Y-293708667D01*
X356362000Y-292946667D01*
X357124000Y-292946667D01*
X357886000Y-292946667D01*
X357886000Y-293708667D01*
G37*
G36*
X357886000Y-282871334D02*
G01*
X357886000Y-283633334D01*
X357124000Y-283633334D01*
X356362000Y-283633334D01*
X356362000Y-282871334D01*
X356362000Y-282109334D01*
X357124000Y-282109334D01*
X357886000Y-282109334D01*
X357886000Y-282871334D01*
G37*
G36*
X354922666Y-281432000D02*
G01*
X354922666Y-281686000D01*
X354414666Y-281686000D01*
X353906666Y-281686000D01*
X353906666Y-281432000D01*
X353906666Y-281178000D01*
X354414666Y-281178000D01*
X354922666Y-281178000D01*
X354922666Y-281432000D01*
G37*
G36*
X347048666Y-282871334D02*
G01*
X347048666Y-283633334D01*
X346286666Y-283633334D01*
X345524666Y-283633334D01*
X345524666Y-282871334D01*
X345524666Y-282109334D01*
X346286666Y-282109334D01*
X347048666Y-282109334D01*
X347048666Y-282871334D01*
G37*
G36*
X358697393Y-289991115D02*
G01*
X358796354Y-290057425D01*
X358817333Y-290237334D01*
X358809552Y-290371394D01*
X358743241Y-290470354D01*
X358563333Y-290491334D01*
X358429273Y-290483552D01*
X358330312Y-290417242D01*
X358309333Y-290237334D01*
X358317115Y-290103273D01*
X358383425Y-290004313D01*
X358563333Y-289983334D01*
X358697393Y-289991115D01*
G37*
G36*
X349868454Y-286601722D02*
G01*
X349984662Y-286657061D01*
X350012000Y-286808334D01*
X350005934Y-286900379D01*
X349939527Y-286997219D01*
X349758000Y-287020000D01*
X349647545Y-287014945D01*
X349531337Y-286959606D01*
X349504000Y-286808334D01*
X349510066Y-286716288D01*
X349576473Y-286619448D01*
X349758000Y-286596667D01*
X349868454Y-286601722D01*
G37*
G36*
X348876060Y-289991115D02*
G01*
X348975021Y-290057425D01*
X348996000Y-290237334D01*
X348988218Y-290371394D01*
X348921908Y-290470354D01*
X348742000Y-290491334D01*
X348607940Y-290483552D01*
X348508979Y-290417242D01*
X348488000Y-290237334D01*
X348495781Y-290103273D01*
X348562092Y-290004313D01*
X348742000Y-289983334D01*
X348876060Y-289991115D01*
G37*
G36*
X347807340Y-292016227D02*
G01*
X347945030Y-292065878D01*
X347980000Y-292227000D01*
X347979106Y-292266007D01*
X347929455Y-292403697D01*
X347768333Y-292438667D01*
X347729326Y-292437773D01*
X347591636Y-292388122D01*
X347556666Y-292227000D01*
X347557560Y-292187993D01*
X347607211Y-292050303D01*
X347768333Y-292015334D01*
X347807340Y-292016227D01*
G37*
G36*
X351451333Y-289771667D02*
G01*
X351451333Y-290999334D01*
X351197333Y-290999334D01*
X350943333Y-290999334D01*
X350943333Y-290025667D01*
X350943333Y-289052000D01*
X350689333Y-289052000D01*
X350555273Y-289044219D01*
X350456312Y-288977908D01*
X350435333Y-288798000D01*
X350435333Y-288544000D01*
X350943333Y-288544000D01*
X351451333Y-288544000D01*
X351451333Y-289771667D01*
G37*
G36*
X358817333Y-288798000D02*
G01*
X358817333Y-289560000D01*
X358563333Y-289560000D01*
X358309333Y-289560000D01*
X358309333Y-289052000D01*
X358309328Y-289034194D01*
X358304238Y-288760092D01*
X358278310Y-288613533D01*
X358214975Y-288554756D01*
X358097666Y-288544000D01*
X358005621Y-288537934D01*
X357908781Y-288471527D01*
X357886000Y-288290000D01*
X357886000Y-288286116D01*
X357894299Y-288142589D01*
X357946890Y-288068217D01*
X358085452Y-288040265D01*
X358351666Y-288036000D01*
X358817333Y-288036000D01*
X358817333Y-288798000D01*
G37*
G36*
X358817333Y-293708667D02*
G01*
X358817333Y-295402000D01*
X357124000Y-295402000D01*
X355430666Y-295402000D01*
X355430666Y-294894000D01*
X355854000Y-294894000D01*
X357081666Y-294894000D01*
X358309333Y-294894000D01*
X358309333Y-293666334D01*
X358309333Y-292438667D01*
X357081666Y-292438667D01*
X355854000Y-292438667D01*
X355854000Y-293666334D01*
X355854000Y-294894000D01*
X355430666Y-294894000D01*
X355430666Y-293708667D01*
X355430666Y-292015334D01*
X357124000Y-292015334D01*
X358817333Y-292015334D01*
X358817333Y-292438667D01*
X358817333Y-293708667D01*
G37*
G36*
X358817333Y-282871334D02*
G01*
X358817333Y-284564667D01*
X357124000Y-284564667D01*
X355430666Y-284564667D01*
X355430666Y-284141334D01*
X355854000Y-284141334D01*
X357081666Y-284141334D01*
X358309333Y-284141334D01*
X358309333Y-282913667D01*
X358309333Y-281686000D01*
X357081666Y-281686000D01*
X355854000Y-281686000D01*
X355854000Y-282913667D01*
X355854000Y-284141334D01*
X355430666Y-284141334D01*
X355430666Y-282871334D01*
X355430666Y-281178000D01*
X357124000Y-281178000D01*
X358817333Y-281178000D01*
X358817333Y-281686000D01*
X358817333Y-282871334D01*
G37*
G36*
X347980000Y-282871334D02*
G01*
X347980000Y-284564667D01*
X346286666Y-284564667D01*
X344593333Y-284564667D01*
X344593333Y-284141334D01*
X345101333Y-284141334D01*
X346329000Y-284141334D01*
X347556666Y-284141334D01*
X347556666Y-282913667D01*
X347556666Y-281686000D01*
X346329000Y-281686000D01*
X345101333Y-281686000D01*
X345101333Y-282913667D01*
X345101333Y-284141334D01*
X344593333Y-284141334D01*
X344593333Y-282871334D01*
X344593333Y-281178000D01*
X346286666Y-281178000D01*
X347980000Y-281178000D01*
X347980000Y-281686000D01*
X347980000Y-282871334D01*
G37*
G36*
X358621920Y-287024527D02*
G01*
X358758269Y-287053213D01*
X358809514Y-287128793D01*
X358817333Y-287274000D01*
X358817333Y-287277884D01*
X358809034Y-287421411D01*
X358756443Y-287495784D01*
X358617881Y-287523735D01*
X358351666Y-287528000D01*
X358344545Y-287528000D01*
X358081413Y-287523473D01*
X357945064Y-287494788D01*
X357893819Y-287419208D01*
X357886000Y-287274000D01*
X357886000Y-287270116D01*
X357894299Y-287126589D01*
X357946890Y-287052217D01*
X358085452Y-287024265D01*
X358351666Y-287020000D01*
X358358788Y-287020000D01*
X358621920Y-287024527D01*
G37*
G36*
X350239920Y-292951194D02*
G01*
X350376269Y-292979879D01*
X350427514Y-293055459D01*
X350435333Y-293200667D01*
X350435333Y-293204551D01*
X350427034Y-293348078D01*
X350374443Y-293422450D01*
X350235881Y-293450402D01*
X349969666Y-293454667D01*
X349962545Y-293454667D01*
X349699413Y-293450140D01*
X349563064Y-293421454D01*
X349511819Y-293345874D01*
X349504000Y-293200667D01*
X349504000Y-293196783D01*
X349512299Y-293053256D01*
X349564890Y-292978883D01*
X349703452Y-292950932D01*
X349969666Y-292946667D01*
X349976788Y-292946667D01*
X350239920Y-292951194D01*
G37*
G36*
X348381411Y-286096966D02*
G01*
X348455783Y-286149557D01*
X348483735Y-286288119D01*
X348488000Y-286554334D01*
X348488000Y-286561455D01*
X348492527Y-286824587D01*
X348521212Y-286960936D01*
X348596792Y-287012181D01*
X348742000Y-287020000D01*
X348876060Y-287027782D01*
X348975021Y-287094092D01*
X348996000Y-287274000D01*
X348988218Y-287408060D01*
X348921908Y-287507021D01*
X348742000Y-287528000D01*
X348607940Y-287520219D01*
X348508979Y-287453908D01*
X348488000Y-287274000D01*
X348487999Y-287270116D01*
X348479701Y-287126589D01*
X348427110Y-287052217D01*
X348288547Y-287024265D01*
X348022333Y-287020000D01*
X347789770Y-287016532D01*
X347632643Y-286992681D01*
X347568754Y-286929559D01*
X347556666Y-286808334D01*
X347557560Y-286769327D01*
X347607211Y-286631636D01*
X347768333Y-286596667D01*
X347860379Y-286590601D01*
X347957219Y-286524194D01*
X347980000Y-286342667D01*
X347987781Y-286208607D01*
X348054092Y-286109646D01*
X348234000Y-286088667D01*
X348237884Y-286088667D01*
X348381411Y-286096966D01*
G37*
G36*
X345101333Y-285580667D02*
G01*
X345101333Y-286088667D01*
X345567000Y-286088667D01*
X345574121Y-286088667D01*
X345837254Y-286093194D01*
X345973603Y-286121879D01*
X346024847Y-286197459D01*
X346032666Y-286342667D01*
X346032666Y-286346551D01*
X346024368Y-286490078D01*
X345971777Y-286564450D01*
X345833214Y-286592402D01*
X345567000Y-286596667D01*
X345334437Y-286600135D01*
X345177310Y-286623986D01*
X345113421Y-286687108D01*
X345101333Y-286808334D01*
X345095267Y-286900379D01*
X345028860Y-286997219D01*
X344847333Y-287020000D01*
X344736879Y-287014945D01*
X344620671Y-286959606D01*
X344593333Y-286808334D01*
X344599399Y-286716288D01*
X344665806Y-286619448D01*
X344847333Y-286596667D01*
X344981393Y-286588885D01*
X345080354Y-286522575D01*
X345101333Y-286342667D01*
X345093552Y-286208607D01*
X345027241Y-286109646D01*
X344847333Y-286088667D01*
X344593333Y-286088667D01*
X344593333Y-285580667D01*
X344593333Y-285072667D01*
X344847333Y-285072667D01*
X345101333Y-285072667D01*
X345101333Y-285580667D01*
G37*
G36*
X352978801Y-284331563D02*
G01*
X353002653Y-284488690D01*
X353065774Y-284552579D01*
X353187000Y-284564667D01*
X353226007Y-284563773D01*
X353363697Y-284514122D01*
X353398666Y-284353000D01*
X353404732Y-284260955D01*
X353471140Y-284164115D01*
X353652666Y-284141334D01*
X353763121Y-284146388D01*
X353879329Y-284201728D01*
X353906666Y-284353000D01*
X353900601Y-284445046D01*
X353834193Y-284541886D01*
X353652666Y-284564667D01*
X353518606Y-284572448D01*
X353419646Y-284638759D01*
X353398666Y-284818667D01*
X353393612Y-284929121D01*
X353338272Y-285045329D01*
X353187000Y-285072667D01*
X353094954Y-285066601D01*
X352998114Y-285000194D01*
X352975333Y-284818667D01*
X352967552Y-284684607D01*
X352901241Y-284585646D01*
X352721333Y-284564667D01*
X352467333Y-284564667D01*
X352467333Y-285072667D01*
X352467333Y-285580667D01*
X351959333Y-285580667D01*
X351451333Y-285580667D01*
X351451333Y-284607000D01*
X351451333Y-284106121D01*
X351959333Y-284106121D01*
X351963860Y-284369254D01*
X351992546Y-284505603D01*
X352068126Y-284556847D01*
X352213333Y-284564667D01*
X352217217Y-284564666D01*
X352360744Y-284556368D01*
X352435117Y-284503777D01*
X352463068Y-284365214D01*
X352467333Y-284099000D01*
X352467333Y-284091879D01*
X352462806Y-283828746D01*
X352434121Y-283692397D01*
X352358541Y-283641153D01*
X352213333Y-283633334D01*
X352209449Y-283633334D01*
X352065922Y-283641632D01*
X351991550Y-283694223D01*
X351963598Y-283832786D01*
X351959333Y-284099000D01*
X351959333Y-284106121D01*
X351451333Y-284106121D01*
X351451333Y-283633334D01*
X351705333Y-283633334D01*
X351839393Y-283625552D01*
X351938354Y-283559242D01*
X351959333Y-283379334D01*
X351967115Y-283245273D01*
X352033425Y-283146313D01*
X352213333Y-283125334D01*
X352347393Y-283133115D01*
X352446354Y-283199425D01*
X352467333Y-283379334D01*
X352475115Y-283513394D01*
X352541425Y-283612354D01*
X352721333Y-283633334D01*
X352725217Y-283633334D01*
X352868744Y-283641632D01*
X352943117Y-283694223D01*
X352971068Y-283832786D01*
X352975333Y-284099000D01*
X352978801Y-284331563D01*
G37*
G36*
X355734379Y-288042066D02*
G01*
X355831219Y-288108473D01*
X355854000Y-288290000D01*
X355848945Y-288400455D01*
X355793605Y-288516663D01*
X355642333Y-288544000D01*
X355550288Y-288550066D01*
X355453448Y-288616473D01*
X355430666Y-288798000D01*
X355422885Y-288932060D01*
X355356575Y-289031021D01*
X355176666Y-289052000D01*
X355042606Y-289059782D01*
X354943646Y-289126092D01*
X354922666Y-289306000D01*
X354914885Y-289440060D01*
X354848575Y-289539021D01*
X354668666Y-289560000D01*
X354558212Y-289565055D01*
X354442004Y-289620395D01*
X354414666Y-289771667D01*
X354408601Y-289863712D01*
X354342193Y-289960552D01*
X354160666Y-289983334D01*
X354156782Y-289983333D01*
X354013255Y-289975035D01*
X353938883Y-289922444D01*
X353910932Y-289783881D01*
X353906666Y-289517667D01*
X353906666Y-289510546D01*
X353902140Y-289247413D01*
X353873454Y-289111064D01*
X353797874Y-289059820D01*
X353652666Y-289052000D01*
X353518606Y-289059782D01*
X353419646Y-289126092D01*
X353398666Y-289306000D01*
X353393612Y-289416455D01*
X353338272Y-289532663D01*
X353187000Y-289560000D01*
X353094954Y-289553934D01*
X352998114Y-289487527D01*
X352975333Y-289306000D01*
X352975333Y-289052000D01*
X352467333Y-289052000D01*
X351959333Y-289052000D01*
X351959333Y-288798000D01*
X351951552Y-288663940D01*
X351885241Y-288564979D01*
X351705333Y-288544000D01*
X351451333Y-288544000D01*
X351451333Y-288290000D01*
X351959333Y-288290000D01*
X351967115Y-288424060D01*
X352033425Y-288523021D01*
X352213333Y-288544000D01*
X352347393Y-288536219D01*
X352446354Y-288469908D01*
X352467333Y-288290000D01*
X352975333Y-288290000D01*
X352975333Y-288544000D01*
X352975338Y-288561806D01*
X352980428Y-288835909D01*
X353006357Y-288982467D01*
X353069691Y-289041244D01*
X353187000Y-289052000D01*
X353279045Y-289045934D01*
X353375885Y-288979527D01*
X353398666Y-288798000D01*
X353406448Y-288663940D01*
X353472758Y-288564979D01*
X353652666Y-288544000D01*
X353786727Y-288536219D01*
X353885687Y-288469908D01*
X353906666Y-288290000D01*
X354414666Y-288290000D01*
X354414666Y-288544000D01*
X354414666Y-289052000D01*
X354668666Y-289052000D01*
X354922666Y-289052000D01*
X354922666Y-288544000D01*
X354922666Y-288036000D01*
X354668666Y-288036000D01*
X354414666Y-288036000D01*
X354414666Y-288290000D01*
X353906666Y-288290000D01*
X353906666Y-288286116D01*
X353898368Y-288142589D01*
X353845777Y-288068217D01*
X353707214Y-288040265D01*
X353441000Y-288036000D01*
X352975333Y-288036000D01*
X352975333Y-288290000D01*
X352467333Y-288290000D01*
X352459552Y-288155940D01*
X352393241Y-288056979D01*
X352213333Y-288036000D01*
X352079273Y-288043782D01*
X351980312Y-288110092D01*
X351959333Y-288290000D01*
X351451333Y-288290000D01*
X351459115Y-288155940D01*
X351525425Y-288056979D01*
X351705333Y-288036000D01*
X351839393Y-288028219D01*
X351938354Y-287961908D01*
X351959333Y-287782000D01*
X351967115Y-287647940D01*
X352033425Y-287548979D01*
X352213333Y-287528000D01*
X352347393Y-287535782D01*
X352446354Y-287602092D01*
X352467333Y-287782000D01*
X352475115Y-287916060D01*
X352541425Y-288015021D01*
X352721333Y-288036000D01*
X352975333Y-288036000D01*
X352975333Y-287528000D01*
X352975333Y-287020000D01*
X352213333Y-287020000D01*
X351451333Y-287020000D01*
X351451333Y-286554334D01*
X351451333Y-286547212D01*
X351455860Y-286284080D01*
X351484546Y-286147731D01*
X351560126Y-286096486D01*
X351705333Y-286088667D01*
X351839393Y-286096448D01*
X351938354Y-286162759D01*
X351959333Y-286342667D01*
X351959333Y-286596667D01*
X352679000Y-286596667D01*
X353398666Y-286596667D01*
X353398666Y-287062334D01*
X353398667Y-287069455D01*
X353403193Y-287332587D01*
X353431879Y-287468936D01*
X353507459Y-287520181D01*
X353652666Y-287528000D01*
X353786727Y-287520219D01*
X353885687Y-287453908D01*
X353906666Y-287274000D01*
X353914448Y-287139940D01*
X353980758Y-287040979D01*
X354160666Y-287020000D01*
X354294727Y-287027782D01*
X354393687Y-287094092D01*
X354414666Y-287274000D01*
X354414666Y-287528000D01*
X354922666Y-287528000D01*
X355430666Y-287528000D01*
X355430666Y-287782000D01*
X355435721Y-287892455D01*
X355491061Y-288008663D01*
X355642333Y-288036000D01*
X355734379Y-288042066D01*
G37*
G36*
X350012894Y-284392007D02*
G01*
X350062545Y-284529697D01*
X350223666Y-284564667D01*
X350262673Y-284563773D01*
X350400364Y-284514122D01*
X350435333Y-284353000D01*
X350441399Y-284260955D01*
X350507806Y-284164115D01*
X350689333Y-284141334D01*
X350943333Y-284141334D01*
X350943333Y-285580667D01*
X350943333Y-287020000D01*
X350689333Y-287020000D01*
X350685449Y-287020000D01*
X350541922Y-287011701D01*
X350467550Y-286959110D01*
X350439598Y-286820548D01*
X350435333Y-286554334D01*
X350435333Y-286088667D01*
X349461666Y-286088667D01*
X348488000Y-286088667D01*
X348488000Y-285834667D01*
X348495781Y-285700607D01*
X348562092Y-285601646D01*
X348742000Y-285580667D01*
X348876060Y-285572885D01*
X348975021Y-285506575D01*
X348996000Y-285326667D01*
X348988218Y-285192607D01*
X348921908Y-285093646D01*
X348742000Y-285072667D01*
X348607940Y-285080448D01*
X348508979Y-285146759D01*
X348488000Y-285326667D01*
X348480218Y-285460727D01*
X348413908Y-285559688D01*
X348234000Y-285580667D01*
X348099940Y-285588448D01*
X348000979Y-285654759D01*
X347980000Y-285834667D01*
X347974945Y-285945121D01*
X347919605Y-286061329D01*
X347768333Y-286088667D01*
X347676288Y-286094733D01*
X347579448Y-286161140D01*
X347556666Y-286342667D01*
X347548885Y-286476727D01*
X347482575Y-286575688D01*
X347302666Y-286596667D01*
X347192212Y-286601722D01*
X347076004Y-286657061D01*
X347048666Y-286808334D01*
X347042601Y-286900379D01*
X346976193Y-286997219D01*
X346794666Y-287020000D01*
X346660606Y-287027782D01*
X346561646Y-287094092D01*
X346540666Y-287274000D01*
X346532885Y-287408060D01*
X346466575Y-287507021D01*
X346286666Y-287528000D01*
X346032666Y-287528000D01*
X346032666Y-288036000D01*
X346032666Y-288544000D01*
X345778666Y-288544000D01*
X345524666Y-288544000D01*
X345524666Y-289052000D01*
X345524666Y-289560000D01*
X345778666Y-289560000D01*
X345912727Y-289552219D01*
X346011687Y-289485908D01*
X346032666Y-289306000D01*
X346040448Y-289171940D01*
X346106758Y-289072979D01*
X346286666Y-289052000D01*
X346420727Y-289044219D01*
X346519687Y-288977908D01*
X346540666Y-288798000D01*
X346540666Y-288544000D01*
X347048666Y-288544000D01*
X347556666Y-288544000D01*
X347556666Y-288036000D01*
X347556671Y-288018194D01*
X347561761Y-287744092D01*
X347587690Y-287597533D01*
X347651025Y-287538756D01*
X347768333Y-287528000D01*
X347775752Y-287528011D01*
X347889962Y-287540228D01*
X347951028Y-287602456D01*
X347975518Y-287754460D01*
X347980000Y-288036000D01*
X347980000Y-288544000D01*
X348234000Y-288544000D01*
X348368060Y-288536219D01*
X348467021Y-288469908D01*
X348488000Y-288290000D01*
X348495781Y-288155940D01*
X348562092Y-288056979D01*
X348742000Y-288036000D01*
X348876060Y-288028219D01*
X348975021Y-287961908D01*
X348996000Y-287782000D01*
X348996000Y-287528000D01*
X349504000Y-287528000D01*
X350012000Y-287528000D01*
X350012000Y-287274000D01*
X350017055Y-287163546D01*
X350072394Y-287047338D01*
X350223666Y-287020000D01*
X350315712Y-287026066D01*
X350412552Y-287092473D01*
X350435333Y-287274000D01*
X350435333Y-287528000D01*
X350943333Y-287528000D01*
X351451333Y-287528000D01*
X351451333Y-287782000D01*
X351451333Y-288036000D01*
X350943333Y-288036000D01*
X350435333Y-288036000D01*
X350435333Y-288290000D01*
X350430278Y-288400455D01*
X350374939Y-288516663D01*
X350223666Y-288544000D01*
X350131621Y-288537934D01*
X350034781Y-288471527D01*
X350012000Y-288290000D01*
X350004218Y-288155940D01*
X349937908Y-288056979D01*
X349758000Y-288036000D01*
X349504000Y-288036000D01*
X349504000Y-288544000D01*
X349504000Y-289052000D01*
X349758000Y-289052000D01*
X349892060Y-289059782D01*
X349991021Y-289126092D01*
X350012000Y-289306000D01*
X350012000Y-289560000D01*
X349250000Y-289560000D01*
X348488000Y-289560000D01*
X348488000Y-289306000D01*
X348488000Y-289052000D01*
X347768333Y-289052000D01*
X347048666Y-289052000D01*
X347048666Y-289306000D01*
X347040885Y-289440060D01*
X346974575Y-289539021D01*
X346794666Y-289560000D01*
X346684212Y-289565055D01*
X346568004Y-289620395D01*
X346540666Y-289771667D01*
X346534601Y-289863712D01*
X346468193Y-289960552D01*
X346286666Y-289983334D01*
X346032666Y-289983334D01*
X346032666Y-290491334D01*
X346032666Y-290999334D01*
X346286666Y-290999334D01*
X346540666Y-290999334D01*
X346540666Y-290491334D01*
X346540666Y-289983334D01*
X346794666Y-289983334D01*
X346905121Y-289978279D01*
X347021329Y-289922939D01*
X347048666Y-289771667D01*
X347054732Y-289679621D01*
X347121140Y-289582781D01*
X347302666Y-289560000D01*
X347413121Y-289565055D01*
X347529329Y-289620395D01*
X347556666Y-289771667D01*
X347557560Y-289810674D01*
X347607211Y-289948364D01*
X347768333Y-289983334D01*
X347775752Y-289983345D01*
X347889962Y-289995561D01*
X347951028Y-290057790D01*
X347975518Y-290209793D01*
X347980000Y-290491334D01*
X347980000Y-290999334D01*
X348488000Y-290999334D01*
X348996000Y-290999334D01*
X348996000Y-291507334D01*
X348996000Y-292015334D01*
X349250000Y-292015334D01*
X349504000Y-292015334D01*
X349504000Y-291253334D01*
X349504000Y-290491334D01*
X349758000Y-290491334D01*
X349761884Y-290491333D01*
X349905411Y-290483035D01*
X349979783Y-290430444D01*
X350007735Y-290291881D01*
X350012000Y-290025667D01*
X350015468Y-289793104D01*
X350039319Y-289635977D01*
X350102441Y-289572088D01*
X350223666Y-289560000D01*
X350435333Y-289560000D01*
X350435333Y-290533667D01*
X350435333Y-291507334D01*
X350689333Y-291507334D01*
X350693217Y-291507334D01*
X350836744Y-291515632D01*
X350911117Y-291568223D01*
X350939068Y-291706786D01*
X350943333Y-291973000D01*
X350943333Y-291980121D01*
X350938806Y-292243254D01*
X350910121Y-292379603D01*
X350834541Y-292430847D01*
X350689333Y-292438667D01*
X350578879Y-292433612D01*
X350462671Y-292378272D01*
X350435333Y-292227000D01*
X350434439Y-292187993D01*
X350384788Y-292050303D01*
X350223666Y-292015334D01*
X350184660Y-292016227D01*
X350046969Y-292065878D01*
X350012000Y-292227000D01*
X350011989Y-292234419D01*
X349999772Y-292348629D01*
X349937544Y-292409695D01*
X349785540Y-292434185D01*
X349504000Y-292438667D01*
X348996000Y-292438667D01*
X348996000Y-292946667D01*
X348996000Y-293454667D01*
X348742000Y-293454667D01*
X348607940Y-293462448D01*
X348508979Y-293528759D01*
X348488000Y-293708667D01*
X348480218Y-293842727D01*
X348413908Y-293941688D01*
X348234000Y-293962667D01*
X348099940Y-293954885D01*
X348000979Y-293888575D01*
X347980000Y-293708667D01*
X347974945Y-293598212D01*
X347919605Y-293482004D01*
X347768333Y-293454667D01*
X347666645Y-293461088D01*
X347603739Y-293502740D01*
X347571014Y-293613148D01*
X347558610Y-293825837D01*
X347556666Y-294174334D01*
X347558555Y-294520074D01*
X347570806Y-294733955D01*
X347603279Y-294845219D01*
X347665834Y-294887393D01*
X347768333Y-294894000D01*
X347807340Y-294893106D01*
X347945030Y-294843455D01*
X347980000Y-294682334D01*
X347986066Y-294590288D01*
X348052473Y-294493448D01*
X348234000Y-294470667D01*
X348368060Y-294462885D01*
X348467021Y-294396575D01*
X348488000Y-294216667D01*
X348495781Y-294082607D01*
X348562092Y-293983646D01*
X348742000Y-293962667D01*
X348876060Y-293954885D01*
X348975021Y-293888575D01*
X348996000Y-293708667D01*
X349003781Y-293574607D01*
X349070092Y-293475646D01*
X349250000Y-293454667D01*
X349384060Y-293462448D01*
X349483021Y-293528759D01*
X349504000Y-293708667D01*
X349504000Y-293712551D01*
X349512299Y-293856078D01*
X349564890Y-293930450D01*
X349703452Y-293958402D01*
X349969666Y-293962667D01*
X349976788Y-293962667D01*
X350239920Y-293958140D01*
X350376269Y-293929454D01*
X350427514Y-293853874D01*
X350435333Y-293708667D01*
X350443115Y-293574607D01*
X350509425Y-293475646D01*
X350689333Y-293454667D01*
X350823393Y-293446885D01*
X350922354Y-293380575D01*
X350943333Y-293200667D01*
X350943333Y-292946667D01*
X351451333Y-292946667D01*
X351959333Y-292946667D01*
X351959333Y-293454667D01*
X351959333Y-293962667D01*
X352213333Y-293962667D01*
X352467333Y-293962667D01*
X352467333Y-293454667D01*
X352467333Y-292946667D01*
X352721333Y-292946667D01*
X352855393Y-292954448D01*
X352954354Y-293020759D01*
X352975333Y-293200667D01*
X352980388Y-293311121D01*
X353035728Y-293427329D01*
X353187000Y-293454667D01*
X353194419Y-293454656D01*
X353308628Y-293442439D01*
X353369695Y-293380211D01*
X353394185Y-293228207D01*
X353398666Y-292946667D01*
X353398666Y-292438667D01*
X352679000Y-292438667D01*
X352333259Y-292436778D01*
X352119378Y-292424528D01*
X352008114Y-292392055D01*
X351965941Y-292329499D01*
X351959333Y-292227000D01*
X351953267Y-292134955D01*
X351886860Y-292038115D01*
X351705333Y-292015334D01*
X351571273Y-292007552D01*
X351472312Y-291941242D01*
X351451333Y-291761334D01*
X351459115Y-291627273D01*
X351525425Y-291528313D01*
X351705333Y-291507334D01*
X351839393Y-291499552D01*
X351938354Y-291433242D01*
X351959333Y-291253334D01*
X351967115Y-291119273D01*
X352033425Y-291020313D01*
X352213333Y-290999334D01*
X352467333Y-290999334D01*
X352467333Y-290491334D01*
X352467333Y-289983334D01*
X352213333Y-289983334D01*
X352102879Y-289978279D01*
X351986671Y-289922939D01*
X351959333Y-289771667D01*
X351959344Y-289764248D01*
X351971561Y-289650038D01*
X352033789Y-289588972D01*
X352185793Y-289564482D01*
X352467333Y-289560000D01*
X352485139Y-289560005D01*
X352759242Y-289565095D01*
X352905800Y-289591024D01*
X352964577Y-289654358D01*
X352975333Y-289771667D01*
X352976227Y-289810674D01*
X353025878Y-289948364D01*
X353187000Y-289983334D01*
X353279045Y-289989399D01*
X353375885Y-290055807D01*
X353398666Y-290237334D01*
X353393612Y-290347788D01*
X353338272Y-290463996D01*
X353187000Y-290491334D01*
X353094954Y-290497399D01*
X352998114Y-290563807D01*
X352975333Y-290745334D01*
X352980388Y-290855788D01*
X353035728Y-290971996D01*
X353187000Y-290999334D01*
X353279045Y-291005399D01*
X353375885Y-291071807D01*
X353398666Y-291253334D01*
X353393612Y-291363788D01*
X353338272Y-291479996D01*
X353187000Y-291507334D01*
X353094954Y-291513399D01*
X352998114Y-291579807D01*
X352975333Y-291761334D01*
X352980388Y-291871788D01*
X353035728Y-291987996D01*
X353187000Y-292015334D01*
X353279045Y-292009268D01*
X353375885Y-291942860D01*
X353398666Y-291761334D01*
X353406448Y-291627273D01*
X353472758Y-291528313D01*
X353652666Y-291507334D01*
X353906666Y-291507334D01*
X353906666Y-290999334D01*
X353906666Y-290491334D01*
X354668666Y-290491334D01*
X355430666Y-290491334D01*
X355430666Y-290237334D01*
X355422885Y-290103273D01*
X355356575Y-290004313D01*
X355176666Y-289983334D01*
X355066212Y-289978279D01*
X354950004Y-289922939D01*
X354922666Y-289771667D01*
X354928732Y-289679621D01*
X354995140Y-289582781D01*
X355176666Y-289560000D01*
X355310727Y-289552219D01*
X355409687Y-289485908D01*
X355430666Y-289306000D01*
X355430666Y-289052000D01*
X356150333Y-289052000D01*
X356870000Y-289052000D01*
X356870000Y-288544000D01*
X356870000Y-288036000D01*
X356616000Y-288036000D01*
X356481940Y-288028219D01*
X356382979Y-287961908D01*
X356362000Y-287782000D01*
X356361999Y-287778116D01*
X356353701Y-287634589D01*
X356301110Y-287560217D01*
X356162547Y-287532265D01*
X355896333Y-287528000D01*
X355889212Y-287528000D01*
X355626079Y-287523473D01*
X355489730Y-287494788D01*
X355438486Y-287419208D01*
X355430666Y-287274000D01*
X355430667Y-287270116D01*
X355438965Y-287126589D01*
X355491556Y-287052217D01*
X355630119Y-287024265D01*
X355896333Y-287020000D01*
X356362000Y-287020000D01*
X356362000Y-287274000D01*
X356369781Y-287408060D01*
X356436092Y-287507021D01*
X356616000Y-287528000D01*
X356750060Y-287535782D01*
X356849021Y-287602092D01*
X356870000Y-287782000D01*
X356877781Y-287916060D01*
X356944092Y-288015021D01*
X357124000Y-288036000D01*
X357378000Y-288036000D01*
X357378000Y-289263667D01*
X357378000Y-290491334D01*
X357632000Y-290491334D01*
X357766060Y-290499115D01*
X357865021Y-290565425D01*
X357886000Y-290745334D01*
X357891055Y-290855788D01*
X357946394Y-290971996D01*
X358097666Y-290999334D01*
X358189712Y-291005399D01*
X358286552Y-291071807D01*
X358309333Y-291253334D01*
X358304278Y-291363788D01*
X358248939Y-291479996D01*
X358097666Y-291507334D01*
X358005621Y-291501268D01*
X357908781Y-291434860D01*
X357886000Y-291253334D01*
X357878218Y-291119273D01*
X357811908Y-291020313D01*
X357632000Y-290999334D01*
X357497940Y-290991552D01*
X357398979Y-290925242D01*
X357378000Y-290745334D01*
X357370218Y-290611273D01*
X357303908Y-290512313D01*
X357124000Y-290491334D01*
X356989940Y-290499115D01*
X356890979Y-290565425D01*
X356870000Y-290745334D01*
X356862218Y-290879394D01*
X356795908Y-290978354D01*
X356616000Y-290999334D01*
X356362000Y-290999334D01*
X356362000Y-290491334D01*
X356362000Y-289983334D01*
X356616000Y-289983334D01*
X356726454Y-289978279D01*
X356842662Y-289922939D01*
X356870000Y-289771667D01*
X356863578Y-289669978D01*
X356821926Y-289607072D01*
X356711519Y-289574347D01*
X356498829Y-289561944D01*
X356150333Y-289560000D01*
X355804592Y-289561889D01*
X355590712Y-289574139D01*
X355479447Y-289606612D01*
X355437274Y-289669168D01*
X355430666Y-289771667D01*
X355431560Y-289810674D01*
X355481211Y-289948364D01*
X355642333Y-289983334D01*
X355734379Y-289989399D01*
X355831219Y-290055807D01*
X355854000Y-290237334D01*
X355848945Y-290347788D01*
X355793605Y-290463996D01*
X355642333Y-290491334D01*
X355550288Y-290497399D01*
X355453448Y-290563807D01*
X355430666Y-290745334D01*
X355435721Y-290855788D01*
X355491061Y-290971996D01*
X355642333Y-290999334D01*
X355734379Y-291005399D01*
X355831219Y-291071807D01*
X355854000Y-291253334D01*
X355853999Y-291257218D01*
X355845701Y-291400745D01*
X355793110Y-291475117D01*
X355654547Y-291503068D01*
X355388333Y-291507334D01*
X355381212Y-291507334D01*
X355118079Y-291511860D01*
X354981730Y-291540546D01*
X354930486Y-291616126D01*
X354922666Y-291761334D01*
X354914885Y-291895394D01*
X354848575Y-291994354D01*
X354668666Y-292015334D01*
X354414666Y-292015334D01*
X354414666Y-292735000D01*
X354414666Y-293454667D01*
X354668666Y-293454667D01*
X354922666Y-293454667D01*
X354922666Y-293708667D01*
X354922666Y-294428334D01*
X354922666Y-295402000D01*
X354668666Y-295402000D01*
X354664782Y-295402000D01*
X354521255Y-295393701D01*
X354446883Y-295341110D01*
X354418932Y-295202548D01*
X354414666Y-294936334D01*
X354414666Y-294929212D01*
X354410140Y-294666080D01*
X354381454Y-294529731D01*
X354305874Y-294478486D01*
X354160666Y-294470667D01*
X354050212Y-294475722D01*
X353934004Y-294531061D01*
X353906666Y-294682334D01*
X353899038Y-294788044D01*
X353846564Y-294859465D01*
X353707697Y-294888506D01*
X353441000Y-294894000D01*
X353433879Y-294894000D01*
X353170746Y-294898527D01*
X353034397Y-294927213D01*
X352983153Y-295002793D01*
X352975333Y-295148000D01*
X352967552Y-295282060D01*
X352901241Y-295381021D01*
X352721333Y-295402000D01*
X352587273Y-295394219D01*
X352488312Y-295327908D01*
X352467333Y-295148000D01*
X352475115Y-295013940D01*
X352541425Y-294914979D01*
X352721333Y-294894000D01*
X352725217Y-294894000D01*
X352868744Y-294885701D01*
X352943117Y-294833110D01*
X352971068Y-294694548D01*
X352975333Y-294428334D01*
X352975333Y-294421212D01*
X352971814Y-294216667D01*
X353398666Y-294216667D01*
X353406448Y-294350727D01*
X353472758Y-294449688D01*
X353652666Y-294470667D01*
X353786727Y-294462885D01*
X353885687Y-294396575D01*
X353906666Y-294216667D01*
X353914448Y-294082607D01*
X353980758Y-293983646D01*
X354160666Y-293962667D01*
X354294727Y-293954885D01*
X354393687Y-293888575D01*
X354414666Y-293708667D01*
X354406885Y-293574607D01*
X354340575Y-293475646D01*
X354160666Y-293454667D01*
X354026606Y-293462448D01*
X353927646Y-293528759D01*
X353906666Y-293708667D01*
X353898885Y-293842727D01*
X353832575Y-293941688D01*
X353652666Y-293962667D01*
X353518606Y-293970448D01*
X353419646Y-294036759D01*
X353398666Y-294216667D01*
X352971814Y-294216667D01*
X352970806Y-294158080D01*
X352942121Y-294021731D01*
X352866541Y-293970486D01*
X352721333Y-293962667D01*
X352587273Y-293970448D01*
X352488312Y-294036759D01*
X352467333Y-294216667D01*
X352459552Y-294350727D01*
X352393241Y-294449688D01*
X352213333Y-294470667D01*
X352209449Y-294470667D01*
X352065922Y-294478966D01*
X351991550Y-294531557D01*
X351963598Y-294670119D01*
X351959333Y-294936334D01*
X351959333Y-295402000D01*
X351451333Y-295402000D01*
X350943333Y-295402000D01*
X350943333Y-295148000D01*
X350951115Y-295013940D01*
X351017425Y-294914979D01*
X351197333Y-294894000D01*
X351307788Y-294888945D01*
X351423996Y-294833606D01*
X351451333Y-294682334D01*
X351457399Y-294590288D01*
X351523806Y-294493448D01*
X351705333Y-294470667D01*
X351839393Y-294462885D01*
X351938354Y-294396575D01*
X351959333Y-294216667D01*
X351959333Y-293962667D01*
X351197333Y-293962667D01*
X350435333Y-293962667D01*
X350435333Y-294216667D01*
X350435333Y-294220551D01*
X350427034Y-294364078D01*
X350374443Y-294438450D01*
X350235881Y-294466402D01*
X349969666Y-294470667D01*
X349962545Y-294470667D01*
X349699413Y-294466140D01*
X349563064Y-294437454D01*
X349511819Y-294361874D01*
X349504000Y-294216667D01*
X349496218Y-294082607D01*
X349429908Y-293983646D01*
X349250000Y-293962667D01*
X349246116Y-293962667D01*
X349102589Y-293970966D01*
X349028216Y-294023557D01*
X349000265Y-294162119D01*
X348996000Y-294428334D01*
X348996000Y-294894000D01*
X349715666Y-294894000D01*
X350435333Y-294894000D01*
X350435333Y-295148000D01*
X350435333Y-295402000D01*
X348996000Y-295402000D01*
X347556666Y-295402000D01*
X347556666Y-295148000D01*
X347548885Y-295013940D01*
X347482575Y-294914979D01*
X347302666Y-294894000D01*
X347298782Y-294894000D01*
X347155255Y-294885701D01*
X347080883Y-294833110D01*
X347052932Y-294694548D01*
X347048666Y-294428334D01*
X347048666Y-293962667D01*
X346540666Y-293962667D01*
X346032666Y-293962667D01*
X346032666Y-294216667D01*
X346040448Y-294350727D01*
X346106758Y-294449688D01*
X346286666Y-294470667D01*
X346397121Y-294475722D01*
X346513329Y-294531061D01*
X346540666Y-294682334D01*
X346534601Y-294774379D01*
X346468193Y-294871219D01*
X346286666Y-294894000D01*
X346176212Y-294888945D01*
X346060004Y-294833606D01*
X346032666Y-294682334D01*
X346026601Y-294590288D01*
X345960193Y-294493448D01*
X345778666Y-294470667D01*
X345774782Y-294470667D01*
X345631255Y-294478966D01*
X345556883Y-294531557D01*
X345528932Y-294670119D01*
X345524666Y-294936334D01*
X345521199Y-295168896D01*
X345497347Y-295326024D01*
X345434226Y-295389912D01*
X345313000Y-295402000D01*
X345207289Y-295394371D01*
X345135868Y-295341897D01*
X345106828Y-295203031D01*
X345101333Y-294936334D01*
X345101333Y-294929212D01*
X345096806Y-294666080D01*
X345068121Y-294529731D01*
X344992541Y-294478486D01*
X344847333Y-294470667D01*
X344593333Y-294470667D01*
X344593333Y-293962667D01*
X344593333Y-293454667D01*
X344847333Y-293454667D01*
X345101333Y-293454667D01*
X345101333Y-293962667D01*
X345101338Y-293980473D01*
X345106428Y-294254575D01*
X345132357Y-294401134D01*
X345195691Y-294459911D01*
X345313000Y-294470667D01*
X345405045Y-294464601D01*
X345501885Y-294398194D01*
X345524666Y-294216667D01*
X345532448Y-294082607D01*
X345598758Y-293983646D01*
X345778666Y-293962667D01*
X345912727Y-293954885D01*
X346011687Y-293888575D01*
X346032666Y-293708667D01*
X346040448Y-293574607D01*
X346106758Y-293475646D01*
X346286666Y-293454667D01*
X346420727Y-293446885D01*
X346519687Y-293380575D01*
X346540666Y-293200667D01*
X346532885Y-293066607D01*
X346466575Y-292967646D01*
X346286666Y-292946667D01*
X347048666Y-292946667D01*
X347768333Y-292946667D01*
X348488000Y-292946667D01*
X348488000Y-292227000D01*
X348488000Y-291507334D01*
X347768333Y-291507334D01*
X347048666Y-291507334D01*
X347048666Y-292227000D01*
X347048666Y-292946667D01*
X346286666Y-292946667D01*
X346282782Y-292946666D01*
X346139255Y-292938368D01*
X346064883Y-292885777D01*
X346036932Y-292747214D01*
X346032666Y-292481000D01*
X346032666Y-292473879D01*
X346028140Y-292210746D01*
X345999454Y-292074397D01*
X345923874Y-292023153D01*
X345778666Y-292015334D01*
X345774782Y-292015334D01*
X345631255Y-292023632D01*
X345556883Y-292076223D01*
X345528932Y-292214786D01*
X345524666Y-292481000D01*
X345524667Y-292488121D01*
X345529193Y-292751254D01*
X345557879Y-292887603D01*
X345633459Y-292938847D01*
X345778666Y-292946667D01*
X345912727Y-292954448D01*
X346011687Y-293020759D01*
X346032666Y-293200667D01*
X346032666Y-293204551D01*
X346024368Y-293348078D01*
X345971777Y-293422450D01*
X345833214Y-293450402D01*
X345567000Y-293454667D01*
X345101333Y-293454667D01*
X345101333Y-292735000D01*
X345101333Y-292015334D01*
X344847333Y-292015334D01*
X344713273Y-292007552D01*
X344614312Y-291941242D01*
X344593333Y-291761334D01*
X344593334Y-291757449D01*
X344601632Y-291613922D01*
X344654223Y-291539550D01*
X344792786Y-291511599D01*
X345059000Y-291507334D01*
X345524666Y-291507334D01*
X345524666Y-290745334D01*
X345524656Y-290678110D01*
X345522090Y-290341096D01*
X345508693Y-290135697D01*
X345475413Y-290029327D01*
X345413199Y-289989401D01*
X345313000Y-289983334D01*
X345211311Y-289976912D01*
X345148405Y-289935260D01*
X345115680Y-289824852D01*
X345103277Y-289612163D01*
X345101333Y-289263667D01*
X345101333Y-288544000D01*
X344847333Y-288544000D01*
X344593333Y-288544000D01*
X344593333Y-288036000D01*
X344593333Y-287528000D01*
X345059000Y-287528000D01*
X345066121Y-287528000D01*
X345329254Y-287523473D01*
X345465603Y-287494788D01*
X345516847Y-287419208D01*
X345524666Y-287274000D01*
X345524666Y-287020000D01*
X346032666Y-287020000D01*
X346050472Y-287019995D01*
X346324575Y-287014905D01*
X346471134Y-286988977D01*
X346529910Y-286925642D01*
X346540666Y-286808334D01*
X346546732Y-286716288D01*
X346613140Y-286619448D01*
X346794666Y-286596667D01*
X346928727Y-286588885D01*
X347027687Y-286522575D01*
X347048666Y-286342667D01*
X347040885Y-286208607D01*
X346974575Y-286109646D01*
X346794666Y-286088667D01*
X346660606Y-286080885D01*
X346561646Y-286014575D01*
X346540666Y-285834667D01*
X346540666Y-285580667D01*
X346032666Y-285580667D01*
X345524666Y-285580667D01*
X345524666Y-285326667D01*
X345524666Y-285072667D01*
X346286666Y-285072667D01*
X347048666Y-285072667D01*
X347048666Y-285326667D01*
X347048667Y-285330551D01*
X347056965Y-285474078D01*
X347109556Y-285548450D01*
X347248119Y-285576402D01*
X347514333Y-285580667D01*
X347521454Y-285580667D01*
X347784587Y-285576140D01*
X347920936Y-285547454D01*
X347972180Y-285471874D01*
X347980000Y-285326667D01*
X347987781Y-285192607D01*
X348054092Y-285093646D01*
X348234000Y-285072667D01*
X348488000Y-285072667D01*
X348488000Y-284353000D01*
X348996000Y-284353000D01*
X349002066Y-284445046D01*
X349068473Y-284541886D01*
X349250000Y-284564667D01*
X349360454Y-284559612D01*
X349476662Y-284504272D01*
X349504000Y-284353000D01*
X349497934Y-284260955D01*
X349431527Y-284164115D01*
X349250000Y-284141334D01*
X349139545Y-284146388D01*
X349023337Y-284201728D01*
X348996000Y-284353000D01*
X348488000Y-284353000D01*
X348488000Y-283633334D01*
X348742000Y-283633334D01*
X348876060Y-283625552D01*
X348975021Y-283559242D01*
X348996000Y-283379334D01*
X349003781Y-283245273D01*
X349070092Y-283146313D01*
X349250000Y-283125334D01*
X349504000Y-283125334D01*
X349504000Y-283633334D01*
X349504000Y-284141334D01*
X349758000Y-284141334D01*
X350012000Y-284141334D01*
X350012000Y-283379334D01*
X350012000Y-282617334D01*
X349250000Y-282617334D01*
X348488000Y-282617334D01*
X348488000Y-281897667D01*
X348488000Y-281178000D01*
X349969666Y-281178000D01*
X351451333Y-281178000D01*
X351451333Y-281432000D01*
X351459115Y-281566060D01*
X351525425Y-281665021D01*
X351705333Y-281686000D01*
X351815788Y-281691055D01*
X351931996Y-281746395D01*
X351959333Y-281897667D01*
X351965755Y-281999355D01*
X352007407Y-282062261D01*
X352117814Y-282094986D01*
X352330504Y-282107390D01*
X352679000Y-282109334D01*
X353398666Y-282109334D01*
X353398666Y-282617334D01*
X353398666Y-283125334D01*
X353652666Y-283125334D01*
X353786727Y-283117552D01*
X353885687Y-283051242D01*
X353906666Y-282871334D01*
X353914448Y-282737273D01*
X353980758Y-282638313D01*
X354160666Y-282617334D01*
X354294727Y-282609552D01*
X354393687Y-282543242D01*
X354414666Y-282363334D01*
X354422448Y-282229273D01*
X354488758Y-282130313D01*
X354668666Y-282109334D01*
X354922666Y-282109334D01*
X354922666Y-282871334D01*
X354922666Y-283633334D01*
X354668666Y-283633334D01*
X354534606Y-283641115D01*
X354435646Y-283707425D01*
X354414666Y-283887334D01*
X354422448Y-284021394D01*
X354488758Y-284120354D01*
X354668666Y-284141334D01*
X354779121Y-284146388D01*
X354895329Y-284201728D01*
X354922666Y-284353000D01*
X354916601Y-284445046D01*
X354850193Y-284541886D01*
X354668666Y-284564667D01*
X354534606Y-284572448D01*
X354435646Y-284638759D01*
X354414666Y-284818667D01*
X354422448Y-284952727D01*
X354488758Y-285051688D01*
X354668666Y-285072667D01*
X354802727Y-285080448D01*
X354901687Y-285146759D01*
X354922666Y-285326667D01*
X354930448Y-285460727D01*
X354996758Y-285559688D01*
X355176666Y-285580667D01*
X355310727Y-285572885D01*
X355409687Y-285506575D01*
X355430666Y-285326667D01*
X355435721Y-285216212D01*
X355491061Y-285100004D01*
X355642333Y-285072667D01*
X355734379Y-285078733D01*
X355831219Y-285145140D01*
X355854000Y-285326667D01*
X355861781Y-285460727D01*
X355928092Y-285559688D01*
X356108000Y-285580667D01*
X356242060Y-285588448D01*
X356341021Y-285654759D01*
X356362000Y-285834667D01*
X356369781Y-285968727D01*
X356436092Y-286067688D01*
X356616000Y-286088667D01*
X356870000Y-286088667D01*
X356870000Y-285834667D01*
X357886000Y-285834667D01*
X357891055Y-285945121D01*
X357946394Y-286061329D01*
X358097666Y-286088667D01*
X358189712Y-286082601D01*
X358286552Y-286016194D01*
X358309333Y-285834667D01*
X358304278Y-285724212D01*
X358248939Y-285608004D01*
X358097666Y-285580667D01*
X358005621Y-285586733D01*
X357908781Y-285653140D01*
X357886000Y-285834667D01*
X356870000Y-285834667D01*
X356870000Y-285580667D01*
X356870000Y-285072667D01*
X357843666Y-285072667D01*
X358817333Y-285072667D01*
X358817333Y-285834667D01*
X358817333Y-286596667D01*
X358097666Y-286596667D01*
X357751926Y-286598556D01*
X357538045Y-286610806D01*
X357426781Y-286643279D01*
X357384607Y-286705835D01*
X357378000Y-286808334D01*
X357377989Y-286815753D01*
X357365772Y-286929962D01*
X357303544Y-286991028D01*
X357151540Y-287015518D01*
X356870000Y-287020000D01*
X356362000Y-287020000D01*
X356362000Y-286554334D01*
X356362000Y-286547212D01*
X356357473Y-286284080D01*
X356328787Y-286147731D01*
X356253207Y-286096486D01*
X356108000Y-286088667D01*
X355973940Y-286080885D01*
X355874979Y-286014575D01*
X355854000Y-285834667D01*
X355848945Y-285724212D01*
X355793605Y-285608004D01*
X355642333Y-285580667D01*
X355550288Y-285586733D01*
X355453448Y-285653140D01*
X355430666Y-285834667D01*
X355435721Y-285945121D01*
X355491061Y-286061329D01*
X355642333Y-286088667D01*
X355734379Y-286094733D01*
X355831219Y-286161140D01*
X355854000Y-286342667D01*
X355853999Y-286346551D01*
X355845701Y-286490078D01*
X355793110Y-286564450D01*
X355654547Y-286592402D01*
X355388333Y-286596667D01*
X355381212Y-286596667D01*
X355118079Y-286592140D01*
X354981730Y-286563454D01*
X354930486Y-286487874D01*
X354922666Y-286342667D01*
X354922666Y-286088667D01*
X354414666Y-286088667D01*
X353906666Y-286088667D01*
X353906666Y-285834667D01*
X353914448Y-285700607D01*
X353980758Y-285601646D01*
X354160666Y-285580667D01*
X354294727Y-285572885D01*
X354393687Y-285506575D01*
X354414666Y-285326667D01*
X354406885Y-285192607D01*
X354340575Y-285093646D01*
X354160666Y-285072667D01*
X354026606Y-285064885D01*
X353927646Y-284998575D01*
X353906666Y-284818667D01*
X353914448Y-284684607D01*
X353980758Y-284585646D01*
X354160666Y-284564667D01*
X354271121Y-284559612D01*
X354387329Y-284504272D01*
X354414666Y-284353000D01*
X354408601Y-284260955D01*
X354342193Y-284164115D01*
X354160666Y-284141334D01*
X354026606Y-284133552D01*
X353927646Y-284067242D01*
X353906666Y-283887334D01*
X353906666Y-283883449D01*
X353898368Y-283739922D01*
X353845777Y-283665550D01*
X353707214Y-283637599D01*
X353441000Y-283633334D01*
X352975333Y-283633334D01*
X352975333Y-283125334D01*
X352975333Y-282617334D01*
X351959333Y-282617334D01*
X350943333Y-282617334D01*
X350943333Y-282151667D01*
X350943333Y-282144546D01*
X350938806Y-281881413D01*
X350910121Y-281745064D01*
X350834541Y-281693820D01*
X350689333Y-281686000D01*
X350578879Y-281691055D01*
X350462671Y-281746395D01*
X350435333Y-281897667D01*
X350434439Y-281936674D01*
X350384788Y-282074364D01*
X350223666Y-282109334D01*
X350184660Y-282108440D01*
X350046969Y-282058789D01*
X350012000Y-281897667D01*
X350011989Y-281890248D01*
X349999772Y-281776038D01*
X349937544Y-281714972D01*
X349785540Y-281690482D01*
X349504000Y-281686000D01*
X349486194Y-281686005D01*
X349212091Y-281691095D01*
X349065533Y-281717024D01*
X349006756Y-281780358D01*
X348996000Y-281897667D01*
X348996011Y-281905086D01*
X349008227Y-282019295D01*
X349070456Y-282080362D01*
X349222460Y-282104852D01*
X349504000Y-282109334D01*
X350012000Y-282109334D01*
X350012000Y-282363334D01*
X350017055Y-282473788D01*
X350072394Y-282589996D01*
X350223666Y-282617334D01*
X350242340Y-282617371D01*
X350335955Y-282626609D01*
X350393010Y-282674840D01*
X350422557Y-282794647D01*
X350433648Y-283018616D01*
X350435333Y-283379334D01*
X350435323Y-283446557D01*
X350432757Y-283783571D01*
X350419359Y-283988970D01*
X350386079Y-284095340D01*
X350323866Y-284135266D01*
X350223666Y-284141334D01*
X350184660Y-284142227D01*
X350046969Y-284191878D01*
X350012000Y-284353000D01*
X350012894Y-284392007D01*
G37*
G36*
X461041833Y-271896096D02*
G01*
X461094950Y-272034000D01*
X461071299Y-272132747D01*
X460967525Y-272203334D01*
X460893217Y-272171904D01*
X460840100Y-272034000D01*
X460863751Y-271935253D01*
X460967525Y-271864667D01*
X461041833Y-271896096D01*
G37*
G36*
X473424045Y-293271602D02*
G01*
X473444630Y-293409129D01*
X473425398Y-293453656D01*
X473335423Y-293532818D01*
X473183548Y-293472302D01*
X473144789Y-293435979D01*
X473136912Y-293324140D01*
X473223638Y-293233947D01*
X473360195Y-293227458D01*
X473424045Y-293271602D01*
G37*
G36*
X448749248Y-293233500D02*
G01*
X448739324Y-293362623D01*
X448716276Y-293392993D01*
X448607325Y-293454667D01*
X448527185Y-293427884D01*
X448465225Y-293309867D01*
X448512787Y-293176356D01*
X448536089Y-293157330D01*
X448659369Y-293146870D01*
X448749248Y-293233500D01*
G37*
G36*
X467919019Y-298517783D02*
G01*
X468069414Y-298713147D01*
X468266389Y-299052027D01*
X468407614Y-299321999D01*
X468500542Y-299536350D01*
X468520080Y-299661812D01*
X468475403Y-299728064D01*
X468388424Y-299766929D01*
X468207316Y-299799784D01*
X468045764Y-299790212D01*
X467975886Y-299736934D01*
X467985752Y-299697143D01*
X468070944Y-299574459D01*
X468102700Y-299478729D01*
X468053369Y-299299096D01*
X467911319Y-299011064D01*
X467796147Y-298783305D01*
X467716090Y-298588460D01*
X467702995Y-298496205D01*
X467800567Y-298451495D01*
X467919019Y-298517783D01*
G37*
G36*
X465940982Y-271655006D02*
G01*
X466040785Y-271716115D01*
X466154266Y-271845649D01*
X466135309Y-271948882D01*
X465979919Y-271991308D01*
X465884758Y-272028251D01*
X465777406Y-272182004D01*
X465661237Y-272478500D01*
X465584064Y-272681003D01*
X465472261Y-272888501D01*
X465377837Y-272965334D01*
X465325201Y-272953805D01*
X465257492Y-272851588D01*
X465262287Y-272812621D01*
X465309644Y-272623734D01*
X465397015Y-272335377D01*
X465511239Y-271989705D01*
X465639159Y-271628873D01*
X465661854Y-271589557D01*
X465753678Y-271575008D01*
X465940982Y-271655006D01*
G37*
G36*
X468315670Y-272638918D02*
G01*
X468467603Y-272750327D01*
X468583506Y-272877712D01*
X468606670Y-272975557D01*
X468555008Y-273011957D01*
X468404987Y-273009043D01*
X468385749Y-273004126D01*
X468279764Y-273029068D01*
X468161997Y-273162194D01*
X468008624Y-273428731D01*
X467911330Y-273605025D01*
X467759941Y-273819557D01*
X467635887Y-273893571D01*
X467523210Y-273840610D01*
X467519962Y-273830270D01*
X467553133Y-273710894D01*
X467643660Y-273499283D01*
X467769706Y-273239067D01*
X467909434Y-272973873D01*
X468041010Y-272747332D01*
X468142596Y-272603072D01*
X468184414Y-272589003D01*
X468315670Y-272638918D01*
G37*
G36*
X465704776Y-299517922D02*
G01*
X465809556Y-299693495D01*
X465918327Y-299948707D01*
X466015694Y-300237049D01*
X466086264Y-300512008D01*
X466114643Y-300727074D01*
X466085436Y-300835735D01*
X466018535Y-300869083D01*
X465830233Y-300903395D01*
X465666957Y-300873139D01*
X465597291Y-300785389D01*
X465606242Y-300734104D01*
X465702338Y-300630546D01*
X465704996Y-300629617D01*
X465752498Y-300565627D01*
X465738348Y-300409384D01*
X465659863Y-300129215D01*
X465635270Y-300050832D01*
X465548979Y-299750229D01*
X465520518Y-299572440D01*
X465548638Y-299487639D01*
X465632090Y-299466000D01*
X465704776Y-299517922D01*
G37*
G36*
X454194210Y-298494320D02*
G01*
X454222335Y-298556388D01*
X454188789Y-298681754D01*
X454085662Y-298898114D01*
X453905048Y-299233167D01*
X453871367Y-299293832D01*
X453719257Y-299553420D01*
X453599262Y-299735803D01*
X453534903Y-299804667D01*
X453531298Y-299804319D01*
X453434499Y-299741111D01*
X453287985Y-299601932D01*
X453251135Y-299559817D01*
X453173275Y-299405465D01*
X453220111Y-299321454D01*
X453380133Y-299340444D01*
X453437581Y-299333791D01*
X453573943Y-299199635D01*
X453748836Y-298915964D01*
X453868566Y-298714736D01*
X454015897Y-298528510D01*
X454123023Y-298469745D01*
X454194210Y-298494320D01*
G37*
G36*
X446956708Y-280335282D02*
G01*
X446955041Y-280487359D01*
X446949557Y-280511907D01*
X446985144Y-280605275D01*
X447132862Y-280703562D01*
X447418809Y-280825813D01*
X447693096Y-280938763D01*
X447868496Y-281036880D01*
X447920515Y-281120429D01*
X447870158Y-281207154D01*
X447829335Y-281233758D01*
X447755076Y-281235330D01*
X447618942Y-281199714D01*
X447388976Y-281118339D01*
X447033224Y-280982631D01*
X446789693Y-280878776D01*
X446599069Y-280776451D01*
X446526054Y-280707252D01*
X446564443Y-280598919D01*
X446667927Y-280427988D01*
X446731561Y-280355136D01*
X446866030Y-280287860D01*
X446956708Y-280335282D01*
G37*
G36*
X445821359Y-285513877D02*
G01*
X445834700Y-285623000D01*
X445833290Y-285626760D01*
X445839146Y-285702772D01*
X445950187Y-285740480D01*
X446198403Y-285751156D01*
X446271733Y-285751837D01*
X446673825Y-285781273D01*
X446913723Y-285854337D01*
X446993278Y-285971542D01*
X446973341Y-286017123D01*
X446866231Y-286059760D01*
X446642704Y-286082163D01*
X446276218Y-286088667D01*
X446154261Y-286087550D01*
X445841185Y-286073427D01*
X445612551Y-286046503D01*
X445511061Y-286011105D01*
X445493230Y-285912125D01*
X445541582Y-285731351D01*
X445641438Y-285567439D01*
X445756736Y-285496000D01*
X445821359Y-285513877D01*
G37*
G36*
X475964146Y-285750894D02*
G01*
X476235368Y-285759965D01*
X476388216Y-285784957D01*
X476455710Y-285833296D01*
X476470870Y-285912409D01*
X476464488Y-286006053D01*
X476417928Y-286212321D01*
X476415079Y-286219417D01*
X476320718Y-286314288D01*
X476224617Y-286281432D01*
X476198507Y-286143383D01*
X476193054Y-286077421D01*
X476118784Y-286031318D01*
X475940393Y-286009501D01*
X475625095Y-286004000D01*
X475433718Y-286002060D01*
X475186807Y-285985296D01*
X475061543Y-285945817D01*
X475026723Y-285877000D01*
X475056365Y-285814417D01*
X475166854Y-285775159D01*
X475387798Y-285755422D01*
X475748796Y-285750000D01*
X475964146Y-285750894D01*
G37*
G36*
X452934047Y-273167524D02*
G01*
X452939766Y-273254611D01*
X452931108Y-273305857D01*
X452838406Y-273408230D01*
X452816308Y-273465363D01*
X452882053Y-273646638D01*
X453049718Y-273940110D01*
X453080613Y-273989740D01*
X453233518Y-274259909D01*
X453289621Y-274424048D01*
X453257265Y-274504861D01*
X453210383Y-274533551D01*
X453134068Y-274572704D01*
X453114880Y-274555157D01*
X453023080Y-274433792D01*
X452882327Y-274231786D01*
X452720151Y-273990410D01*
X452564080Y-273750936D01*
X452441644Y-273554634D01*
X452380371Y-273442775D01*
X452413294Y-273332625D01*
X452607440Y-273229424D01*
X452751263Y-273179877D01*
X452886439Y-273143766D01*
X452934047Y-273167524D01*
G37*
G36*
X446143779Y-283033651D02*
G01*
X446176021Y-283134276D01*
X446307181Y-283215968D01*
X446572710Y-283287651D01*
X446727014Y-283319034D01*
X446974140Y-283362343D01*
X447124884Y-283379334D01*
X447202607Y-283384267D01*
X447242229Y-283436107D01*
X447194690Y-283588941D01*
X447151299Y-283656964D01*
X447043847Y-283690478D01*
X446948935Y-283663872D01*
X446725409Y-283612670D01*
X446438923Y-283553613D01*
X446299980Y-283526400D01*
X445998823Y-283464007D01*
X445828850Y-283411587D01*
X445764024Y-283350407D01*
X445778309Y-283261740D01*
X445845666Y-283126855D01*
X445897059Y-283036896D01*
X446019131Y-282896752D01*
X446108869Y-282893326D01*
X446143779Y-283033651D01*
G37*
G36*
X473378961Y-277278294D02*
G01*
X473239752Y-277555426D01*
X472968421Y-277793377D01*
X472669861Y-277911537D01*
X472372295Y-277883022D01*
X472117191Y-277693677D01*
X471991877Y-277462960D01*
X471992605Y-277445464D01*
X472263559Y-277445464D01*
X472316063Y-277536600D01*
X472480368Y-277615445D01*
X472693347Y-277593552D01*
X472906551Y-277480494D01*
X473071530Y-277285841D01*
X473123233Y-277078159D01*
X473036788Y-276920154D01*
X472823746Y-276860000D01*
X472621379Y-276906042D01*
X472413135Y-277049749D01*
X472278775Y-277245323D01*
X472263559Y-277445464D01*
X471992605Y-277445464D01*
X472003784Y-277176707D01*
X472183200Y-276872721D01*
X472244015Y-276806291D01*
X472530124Y-276607205D01*
X472833644Y-276549359D01*
X473117455Y-276641922D01*
X473242944Y-276746121D01*
X473381531Y-276996890D01*
X473380789Y-277078159D01*
X473378961Y-277278294D01*
G37*
G36*
X460173121Y-301222390D02*
G01*
X460041148Y-301489111D01*
X459945947Y-301569070D01*
X459677909Y-301661248D01*
X459386360Y-301637787D01*
X459141104Y-301498000D01*
X459030324Y-301344304D01*
X458959065Y-301061083D01*
X458978351Y-300908346D01*
X459261750Y-300908346D01*
X459277392Y-301144728D01*
X459371183Y-301307046D01*
X459537597Y-301400141D01*
X459712110Y-301368807D01*
X459849776Y-301224829D01*
X459905652Y-300979992D01*
X459890157Y-300760769D01*
X459805485Y-300550473D01*
X459643672Y-300482000D01*
X459505923Y-300521737D01*
X459348748Y-300681103D01*
X459261750Y-300908346D01*
X458978351Y-300908346D01*
X458996659Y-300763349D01*
X459126983Y-300495595D01*
X459333913Y-300302315D01*
X459601327Y-300228000D01*
X459704398Y-300234667D01*
X459976156Y-300345819D01*
X460144964Y-300586614D01*
X460202977Y-300947667D01*
X460199464Y-300979992D01*
X460173121Y-301222390D01*
G37*
G36*
X476276180Y-289099765D02*
G01*
X476116262Y-289364043D01*
X476025757Y-289439966D01*
X475741056Y-289547922D01*
X475418519Y-289544114D01*
X475125212Y-289424456D01*
X475124664Y-289424073D01*
X474906990Y-289190889D01*
X474825890Y-288922707D01*
X474838590Y-288853325D01*
X475128076Y-288853325D01*
X475145231Y-288990499D01*
X475295640Y-289170825D01*
X475314435Y-289183485D01*
X475563872Y-289280497D01*
X475800377Y-289268036D01*
X475976832Y-289158954D01*
X476046121Y-288966105D01*
X476004717Y-288835786D01*
X475851332Y-288710157D01*
X475634151Y-288642607D01*
X475405999Y-288639626D01*
X475219699Y-288707702D01*
X475128076Y-288853325D01*
X474838590Y-288853325D01*
X474873728Y-288661353D01*
X475042868Y-288448656D01*
X475325674Y-288326443D01*
X475666318Y-288317289D01*
X475963669Y-288415875D01*
X476178610Y-288597762D01*
X476289872Y-288835032D01*
X476283093Y-288966105D01*
X476276180Y-289099765D01*
G37*
G36*
X471181659Y-274854853D02*
G01*
X471100043Y-275149274D01*
X470863051Y-275441834D01*
X470582457Y-275617839D01*
X470296508Y-275658001D01*
X470049627Y-275566287D01*
X469876248Y-275355851D01*
X469820600Y-275087151D01*
X470110876Y-275087151D01*
X470188463Y-275298327D01*
X470215445Y-275329597D01*
X470322055Y-275407692D01*
X470446055Y-275381630D01*
X470640350Y-275245188D01*
X470782191Y-275095596D01*
X470864181Y-274830913D01*
X470856274Y-274735720D01*
X470764300Y-274566320D01*
X470589777Y-274531892D01*
X470358687Y-274642137D01*
X470172792Y-274851149D01*
X470110876Y-275087151D01*
X469820600Y-275087151D01*
X469810803Y-275039848D01*
X469818143Y-274906232D01*
X469893905Y-274687947D01*
X470083982Y-274478606D01*
X470156813Y-274417809D01*
X470455129Y-274261783D01*
X470736351Y-274273427D01*
X471004959Y-274452613D01*
X471104992Y-274578829D01*
X471175010Y-274830913D01*
X471181659Y-274854853D01*
G37*
G36*
X471161744Y-297682728D02*
G01*
X471034554Y-297964503D01*
X470911714Y-298086319D01*
X470643448Y-298197797D01*
X470355379Y-298156730D01*
X470082594Y-297963167D01*
X470062094Y-297940819D01*
X469903740Y-297732895D01*
X469809225Y-297549562D01*
X469792001Y-297347168D01*
X469806889Y-297308196D01*
X470118056Y-297308196D01*
X470137396Y-297516712D01*
X470277342Y-297738619D01*
X470488835Y-297907248D01*
X470681463Y-297946169D01*
X470814527Y-297842688D01*
X470864181Y-297602345D01*
X470861974Y-297557313D01*
X470770291Y-297316355D01*
X470579881Y-297151633D01*
X470340250Y-297109697D01*
X470214940Y-297156899D01*
X470118056Y-297308196D01*
X469806889Y-297308196D01*
X469887927Y-297096064D01*
X470083775Y-296901868D01*
X470339474Y-296800479D01*
X470614949Y-296827794D01*
X470737586Y-296884704D01*
X470998364Y-297102476D01*
X471144716Y-297381935D01*
X471157193Y-297602345D01*
X471161744Y-297682728D01*
G37*
G36*
X463499481Y-301119857D02*
G01*
X463322906Y-301434500D01*
X463204539Y-301526815D01*
X462950035Y-301586049D01*
X462681089Y-301528492D01*
X462460313Y-301359582D01*
X462397438Y-301267646D01*
X462290845Y-300973104D01*
X462290615Y-300897351D01*
X462543595Y-300897351D01*
X462627036Y-301164900D01*
X462713809Y-301269601D01*
X462895901Y-301334218D01*
X463074839Y-301277115D01*
X463186806Y-301105110D01*
X463205134Y-300991094D01*
X463181780Y-300730538D01*
X463085182Y-300517824D01*
X462936772Y-300412331D01*
X462867557Y-300405982D01*
X462680971Y-300476306D01*
X462567278Y-300653957D01*
X462543595Y-300897351D01*
X462290615Y-300897351D01*
X462289931Y-300672073D01*
X462383003Y-300405881D01*
X462558373Y-300215859D01*
X462804348Y-300143334D01*
X463085361Y-300178334D01*
X463322077Y-300325660D01*
X463472890Y-300607021D01*
X463512478Y-300760920D01*
X463504143Y-300991094D01*
X463499481Y-301119857D01*
G37*
G36*
X452003949Y-297452916D02*
G01*
X451889346Y-297733693D01*
X451655300Y-297973471D01*
X451459570Y-298068793D01*
X451166568Y-298085848D01*
X450905378Y-297975157D01*
X450717922Y-297758198D01*
X450646498Y-297458035D01*
X450949547Y-297458035D01*
X450985920Y-297688000D01*
X451125037Y-297833324D01*
X451310619Y-297822526D01*
X451541955Y-297649515D01*
X451702462Y-297429874D01*
X451739311Y-297200044D01*
X451623469Y-297011019D01*
X451587329Y-296984074D01*
X451461215Y-296956738D01*
X451286658Y-297042985D01*
X451072200Y-297224446D01*
X450949547Y-297458035D01*
X450646498Y-297458035D01*
X450646121Y-297456449D01*
X450666557Y-297353176D01*
X450792075Y-297130714D01*
X450990051Y-296909452D01*
X451211580Y-296739758D01*
X451407759Y-296672000D01*
X451410998Y-296672007D01*
X451702633Y-296740686D01*
X451903439Y-296918803D01*
X452006263Y-297168750D01*
X452006008Y-297200044D01*
X452003949Y-297452916D01*
G37*
G36*
X476131070Y-283079940D02*
G01*
X476123250Y-283202701D01*
X476009633Y-283490973D01*
X475748796Y-283704899D01*
X475563080Y-283775859D01*
X475223602Y-283776168D01*
X474906207Y-283623623D01*
X474828942Y-283557775D01*
X474715588Y-283385585D01*
X474708303Y-283239342D01*
X474958177Y-283239342D01*
X474972961Y-283302187D01*
X475067388Y-283402216D01*
X475281572Y-283442435D01*
X475420733Y-283443131D01*
X475683387Y-283380920D01*
X475845142Y-283250522D01*
X475883079Y-283077712D01*
X475774281Y-282888267D01*
X475615071Y-282803401D01*
X475386993Y-282805342D01*
X475165348Y-282894190D01*
X475004341Y-283046629D01*
X474958177Y-283239342D01*
X474708303Y-283239342D01*
X474703613Y-283145201D01*
X474737604Y-282983091D01*
X474885237Y-282745702D01*
X475111699Y-282589234D01*
X475379978Y-282515380D01*
X475653065Y-282525832D01*
X475893950Y-282622281D01*
X476065622Y-282806420D01*
X476130537Y-283077712D01*
X476131070Y-283079940D01*
G37*
G36*
X457049800Y-300317570D02*
G01*
X456938258Y-300630777D01*
X456737106Y-300862738D01*
X456518419Y-300968489D01*
X456245964Y-300976853D01*
X456014659Y-300859882D01*
X455850876Y-300642515D01*
X455780989Y-300349687D01*
X455803769Y-300194444D01*
X456096385Y-300194444D01*
X456098137Y-300446062D01*
X456184850Y-300634400D01*
X456297944Y-300718668D01*
X456425427Y-300705035D01*
X456597618Y-300561675D01*
X456615006Y-300543502D01*
X456735842Y-300328502D01*
X456754926Y-300100114D01*
X456678403Y-299911993D01*
X456512419Y-299817793D01*
X456375170Y-299823608D01*
X456193857Y-299939808D01*
X456178521Y-299962285D01*
X456096385Y-300194444D01*
X455803769Y-300194444D01*
X455831371Y-300006336D01*
X455882591Y-299885085D01*
X456077422Y-299650345D01*
X456330047Y-299529604D01*
X456598827Y-299526886D01*
X456842126Y-299646216D01*
X457018307Y-299891618D01*
X457050350Y-299996949D01*
X457050173Y-300100114D01*
X457049800Y-300317570D01*
G37*
G36*
X451267099Y-275928068D02*
G01*
X451138690Y-276178493D01*
X450913652Y-276334834D01*
X450746968Y-276365987D01*
X450436860Y-276313924D01*
X450158812Y-276148249D01*
X449958494Y-275901247D01*
X449881572Y-275605206D01*
X449892325Y-275509952D01*
X449907030Y-275479877D01*
X450153834Y-275479877D01*
X450172119Y-275665896D01*
X450344935Y-275890182D01*
X450544301Y-276036969D01*
X450763315Y-276098983D01*
X450929287Y-276041556D01*
X450939656Y-276030180D01*
X450987896Y-275857596D01*
X450932703Y-275637361D01*
X450789308Y-275435425D01*
X450651283Y-275326265D01*
X450429595Y-275257635D01*
X450238361Y-275352934D01*
X450153834Y-275479877D01*
X449907030Y-275479877D01*
X450013733Y-275261646D01*
X450227427Y-275072532D01*
X450479573Y-274997334D01*
X450551171Y-275003090D01*
X450829482Y-275110186D01*
X451083900Y-275316434D01*
X451250950Y-275574353D01*
X451272155Y-275643812D01*
X451268352Y-275857596D01*
X451267099Y-275928068D01*
G37*
G36*
X475134218Y-280090257D02*
G01*
X474993510Y-280354117D01*
X474781383Y-280543031D01*
X474573265Y-280627562D01*
X474255435Y-280654623D01*
X473984127Y-280563801D01*
X473795112Y-280370428D01*
X473735460Y-280134534D01*
X474021812Y-280134534D01*
X474060938Y-280202983D01*
X474223065Y-280288812D01*
X474447184Y-280318356D01*
X474666659Y-280276905D01*
X474678368Y-280271686D01*
X474829924Y-280133707D01*
X474897093Y-279943534D01*
X474852316Y-279775588D01*
X474840026Y-279761688D01*
X474651605Y-279662803D01*
X474423432Y-279673180D01*
X474207648Y-279770285D01*
X474056394Y-279931581D01*
X474021812Y-280134534D01*
X473735460Y-280134534D01*
X473724158Y-280089838D01*
X473724246Y-280078717D01*
X473795612Y-279788902D01*
X473974369Y-279564399D01*
X474222701Y-279414382D01*
X474502789Y-279348026D01*
X474776816Y-279374503D01*
X475006965Y-279502988D01*
X475155417Y-279742653D01*
X475171235Y-279820504D01*
X475154352Y-279943534D01*
X475134218Y-280090257D01*
G37*
G36*
X449270644Y-278463063D02*
G01*
X449117024Y-278722667D01*
X448924505Y-278843372D01*
X448644736Y-278874031D01*
X448355559Y-278794282D01*
X448098093Y-278624376D01*
X447913459Y-278384565D01*
X447860616Y-278168159D01*
X448150719Y-278168159D01*
X448261731Y-278379104D01*
X448500556Y-278547308D01*
X448543694Y-278567054D01*
X448676796Y-278622457D01*
X448760219Y-278615681D01*
X448883412Y-278546552D01*
X448910767Y-278529064D01*
X449020914Y-278368425D01*
X448985244Y-278169477D01*
X448808243Y-277966812D01*
X448555427Y-277821440D01*
X448337730Y-277814671D01*
X448183623Y-277958717D01*
X448150719Y-278168159D01*
X447860616Y-278168159D01*
X447842776Y-278095101D01*
X447842944Y-278090008D01*
X447897071Y-277945890D01*
X448018841Y-277760418D01*
X448132094Y-277648916D01*
X448403954Y-277538980D01*
X448712790Y-277574808D01*
X449025556Y-277756526D01*
X449148206Y-277884646D01*
X449279581Y-278168339D01*
X449273514Y-278368425D01*
X449270644Y-278463063D01*
G37*
G36*
X447112143Y-288879144D02*
G01*
X446914862Y-289143180D01*
X446765751Y-289265194D01*
X446449066Y-289389504D01*
X446129027Y-289362511D01*
X445842594Y-289182849D01*
X445686312Y-288988809D01*
X445650371Y-288812926D01*
X445933388Y-288812926D01*
X446063043Y-288987759D01*
X446111733Y-289026754D01*
X446243454Y-289111301D01*
X446367442Y-289113536D01*
X446566130Y-289042416D01*
X446703088Y-288978041D01*
X446871244Y-288828442D01*
X446874371Y-288667161D01*
X446710088Y-288503112D01*
X446667841Y-288477012D01*
X446479330Y-288417394D01*
X446249675Y-288464743D01*
X446156406Y-288502284D01*
X445966692Y-288644982D01*
X445933388Y-288812926D01*
X445650371Y-288812926D01*
X445643710Y-288780330D01*
X445728398Y-288514987D01*
X445821004Y-288372935D01*
X446067846Y-288196502D01*
X446374400Y-288124909D01*
X446687671Y-288166217D01*
X446954664Y-288328485D01*
X447012114Y-288390082D01*
X447144278Y-288633887D01*
X447139918Y-288667161D01*
X447112143Y-288879144D01*
G37*
G36*
X456118014Y-272905391D02*
G01*
X455944029Y-273128522D01*
X455937275Y-273133768D01*
X455741372Y-273254176D01*
X455580656Y-273304000D01*
X455565020Y-273303608D01*
X455326290Y-273219160D01*
X455096268Y-273016683D01*
X454924346Y-272738718D01*
X454907486Y-272695390D01*
X454875542Y-272434896D01*
X455159417Y-272434896D01*
X455226065Y-272697174D01*
X455367032Y-272917080D01*
X455469967Y-273005425D01*
X455615511Y-273035717D01*
X455779518Y-272916953D01*
X455811258Y-272884236D01*
X455897017Y-272751654D01*
X455887589Y-272600028D01*
X455783404Y-272368462D01*
X455661681Y-272217430D01*
X455475767Y-272121857D01*
X455296682Y-272127634D01*
X455179109Y-272245856D01*
X455159417Y-272434896D01*
X454875542Y-272434896D01*
X454867564Y-272369842D01*
X454984707Y-272090683D01*
X455248517Y-271885284D01*
X455270796Y-271875190D01*
X455539173Y-271835048D01*
X455782803Y-271926338D01*
X455982094Y-272114038D01*
X456117455Y-272363128D01*
X456169292Y-272638586D01*
X456147561Y-272751654D01*
X456118014Y-272905391D01*
G37*
%TD*%
M02*
