%TF.GenerationSoftware,KiCad,Pcbnew,7.0.2-0*%
%TF.CreationDate,2023-06-19T18:33:07-07:00*%
%TF.ProjectId,FrogBadge,46726f67-4261-4646-9765-2e6b69636164,1.1*%
%TF.SameCoordinates,Original*%
%TF.FileFunction,Soldermask,Top*%
%TF.FilePolarity,Negative*%
%FSLAX46Y46*%
G04 Gerber Fmt 4.6, Leading zero omitted, Abs format (unit mm)*
G04 Created by KiCad (PCBNEW 7.0.2-0) date 2023-06-19 18:33:07*
%MOMM*%
%LPD*%
G01*
G04 APERTURE LIST*
G04 Aperture macros list*
%AMRoundRect*
0 Rectangle with rounded corners*
0 $1 Rounding radius*
0 $2 $3 $4 $5 $6 $7 $8 $9 X,Y pos of 4 corners*
0 Add a 4 corners polygon primitive as box body*
4,1,4,$2,$3,$4,$5,$6,$7,$8,$9,$2,$3,0*
0 Add four circle primitives for the rounded corners*
1,1,$1+$1,$2,$3*
1,1,$1+$1,$4,$5*
1,1,$1+$1,$6,$7*
1,1,$1+$1,$8,$9*
0 Add four rect primitives between the rounded corners*
20,1,$1+$1,$2,$3,$4,$5,0*
20,1,$1+$1,$4,$5,$6,$7,0*
20,1,$1+$1,$6,$7,$8,$9,0*
20,1,$1+$1,$8,$9,$2,$3,0*%
G04 Aperture macros list end*
%ADD10C,2.000000*%
%ADD11R,1.700000X1.700000*%
%ADD12O,1.700000X1.700000*%
%ADD13O,1.727200X1.727200*%
%ADD14R,1.727200X1.727200*%
%ADD15C,1.727200*%
%ADD16RoundRect,0.250001X-0.799999X-0.799999X0.799999X-0.799999X0.799999X0.799999X-0.799999X0.799999X0*%
%ADD17C,2.100000*%
G04 APERTURE END LIST*
D10*
%TO.C,SW3*%
X453009000Y-308102000D03*
X459509000Y-308102000D03*
X453009000Y-312602000D03*
X459509000Y-312602000D03*
%TD*%
D11*
%TO.C,J1*%
X363843500Y-325907000D03*
D12*
X366383500Y-325907000D03*
X368923500Y-325907000D03*
X371463500Y-325907000D03*
X374003500Y-325907000D03*
X376543500Y-325907000D03*
X379083500Y-325907000D03*
X381623500Y-325907000D03*
X384163500Y-325907000D03*
X386703500Y-325907000D03*
X389243500Y-325907000D03*
X391783500Y-325907000D03*
X394323500Y-325907000D03*
X396863500Y-325907000D03*
X399403500Y-325907000D03*
%TD*%
D11*
%TO.C,J3*%
X421894000Y-325882000D03*
D12*
X419354000Y-325882000D03*
X416814000Y-325882000D03*
X414274000Y-325882000D03*
X411734000Y-325882000D03*
X409194000Y-325882000D03*
%TD*%
D13*
%TO.C,X1*%
X354838000Y-273558000D03*
D14*
X354838000Y-276098000D03*
D13*
X357378000Y-273558000D03*
X357378000Y-276098000D03*
D15*
X359918000Y-273558000D03*
X359918000Y-276098000D03*
%TD*%
D10*
%TO.C,SW2*%
X443484000Y-315671200D03*
X449984000Y-315671200D03*
X443484000Y-320171200D03*
X449984000Y-320171200D03*
%TD*%
%TO.C,SW4*%
X433936000Y-308102000D03*
X440436000Y-308102000D03*
X433936000Y-312602000D03*
X440436000Y-312602000D03*
%TD*%
D11*
%TO.C,J5*%
X421894000Y-342265000D03*
D12*
X421894000Y-339725000D03*
X421894000Y-337185000D03*
X421894000Y-334645000D03*
%TD*%
D16*
%TO.C,BT1*%
X379730000Y-313436000D03*
D17*
X384330000Y-313436000D03*
%TD*%
D10*
%TO.C,SW1*%
X443484000Y-300554000D03*
X449984000Y-300554000D03*
X443484000Y-305054000D03*
X449984000Y-305054000D03*
%TD*%
D11*
%TO.C,J4*%
X422910000Y-273050000D03*
D12*
X420370000Y-273050000D03*
X417830000Y-273050000D03*
X415290000Y-273050000D03*
X412750000Y-273050000D03*
X410210000Y-273050000D03*
X407670000Y-273050000D03*
%TD*%
D11*
%TO.C,J2*%
X363843500Y-300457000D03*
D12*
X366383500Y-300457000D03*
X368923500Y-300457000D03*
X371463500Y-300457000D03*
X374003500Y-300457000D03*
X376543500Y-300457000D03*
X379083500Y-300457000D03*
X381623500Y-300457000D03*
X384163500Y-300457000D03*
X386703500Y-300457000D03*
X389243500Y-300457000D03*
X391783500Y-300457000D03*
X394323500Y-300457000D03*
X396863500Y-300457000D03*
X399403500Y-300457000D03*
%TD*%
M02*
