%TF.GenerationSoftware,KiCad,Pcbnew,7.0.2-0*%
%TF.CreationDate,2023-06-19T18:33:07-07:00*%
%TF.ProjectId,FrogBadge,46726f67-4261-4646-9765-2e6b69636164,1.1*%
%TF.SameCoordinates,Original*%
%TF.FileFunction,Copper,L1,Top*%
%TF.FilePolarity,Positive*%
%FSLAX46Y46*%
G04 Gerber Fmt 4.6, Leading zero omitted, Abs format (unit mm)*
G04 Created by KiCad (PCBNEW 7.0.2-0) date 2023-06-19 18:33:07*
%MOMM*%
%LPD*%
G01*
G04 APERTURE LIST*
G04 Aperture macros list*
%AMRoundRect*
0 Rectangle with rounded corners*
0 $1 Rounding radius*
0 $2 $3 $4 $5 $6 $7 $8 $9 X,Y pos of 4 corners*
0 Add a 4 corners polygon primitive as box body*
4,1,4,$2,$3,$4,$5,$6,$7,$8,$9,$2,$3,0*
0 Add four circle primitives for the rounded corners*
1,1,$1+$1,$2,$3*
1,1,$1+$1,$4,$5*
1,1,$1+$1,$6,$7*
1,1,$1+$1,$8,$9*
0 Add four rect primitives between the rounded corners*
20,1,$1+$1,$2,$3,$4,$5,0*
20,1,$1+$1,$4,$5,$6,$7,0*
20,1,$1+$1,$6,$7,$8,$9,0*
20,1,$1+$1,$8,$9,$2,$3,0*%
G04 Aperture macros list end*
%TA.AperFunction,ComponentPad*%
%ADD10C,2.000000*%
%TD*%
%TA.AperFunction,ComponentPad*%
%ADD11R,1.700000X1.700000*%
%TD*%
%TA.AperFunction,ComponentPad*%
%ADD12O,1.700000X1.700000*%
%TD*%
%TA.AperFunction,ComponentPad*%
%ADD13O,1.727200X1.727200*%
%TD*%
%TA.AperFunction,ComponentPad*%
%ADD14R,1.727200X1.727200*%
%TD*%
%TA.AperFunction,ComponentPad*%
%ADD15C,1.727200*%
%TD*%
%TA.AperFunction,ComponentPad*%
%ADD16RoundRect,0.250001X-0.799999X-0.799999X0.799999X-0.799999X0.799999X0.799999X-0.799999X0.799999X0*%
%TD*%
%TA.AperFunction,ComponentPad*%
%ADD17C,2.100000*%
%TD*%
%TA.AperFunction,ViaPad*%
%ADD18C,0.800000*%
%TD*%
%TA.AperFunction,Conductor*%
%ADD19C,0.250000*%
%TD*%
G04 APERTURE END LIST*
D10*
%TO.P,SW3,1,1*%
%TO.N,GND*%
X453009000Y-308102000D03*
X459509000Y-308102000D03*
%TO.P,SW3,2,2*%
%TO.N,Net-(J1-TX0)*%
X453009000Y-312602000D03*
X459509000Y-312602000D03*
%TD*%
D11*
%TO.P,J1,1,3v3*%
%TO.N,+3V3*%
X363843500Y-325907000D03*
D12*
%TO.P,J1,2,GND*%
%TO.N,GND*%
X366383500Y-325907000D03*
%TO.P,J1,3,D15*%
%TO.N,Net-(J1-D15)*%
X368923500Y-325907000D03*
%TO.P,J1,4,D2*%
%TO.N,unconnected-(J1-D2-Pad4)*%
X371463500Y-325907000D03*
%TO.P,J1,5,D4*%
%TO.N,unconnected-(J1-D4-Pad5)*%
X374003500Y-325907000D03*
%TO.P,J1,6,RX2*%
%TO.N,unconnected-(J1-RX2-Pad6)*%
X376543500Y-325907000D03*
%TO.P,J1,7,TX2*%
%TO.N,unconnected-(J1-TX2-Pad7)*%
X379083500Y-325907000D03*
%TO.P,J1,8,D5*%
%TO.N,Net-(J1-D5)*%
X381623500Y-325907000D03*
%TO.P,J1,9,D18*%
%TO.N,Net-(J1-D18)*%
X384163500Y-325907000D03*
%TO.P,J1,10,D19*%
%TO.N,Net-(J1-D19)*%
X386703500Y-325907000D03*
%TO.P,J1,11,D21*%
%TO.N,Net-(J1-D21)*%
X389243500Y-325907000D03*
%TO.P,J1,12,RX0*%
%TO.N,Net-(J1-RX0)*%
X391783500Y-325907000D03*
%TO.P,J1,13,TX0*%
%TO.N,Net-(J1-TX0)*%
X394323500Y-325907000D03*
%TO.P,J1,14,D22*%
%TO.N,Net-(J1-D22)*%
X396863500Y-325907000D03*
%TO.P,J1,15,D23*%
%TO.N,Net-(J1-D23)*%
X399403500Y-325907000D03*
%TD*%
D11*
%TO.P,J3,1,GND*%
%TO.N,GND*%
X421894000Y-325882000D03*
D12*
%TO.P,J3,2,MISO*%
%TO.N,Net-(J1-D19)*%
X419354000Y-325882000D03*
%TO.P,J3,3,CLK*%
%TO.N,Net-(J1-D18)*%
X416814000Y-325882000D03*
%TO.P,J3,4,MOSI*%
%TO.N,Net-(J1-D23)*%
X414274000Y-325882000D03*
%TO.P,J3,5,CS*%
%TO.N,Net-(J1-D5)*%
X411734000Y-325882000D03*
%TO.P,J3,6,3v3*%
%TO.N,+3V3*%
X409194000Y-325882000D03*
%TD*%
D13*
%TO.P,X1,1,VCC*%
%TO.N,+3V3*%
X354838000Y-273558000D03*
D14*
%TO.P,X1,2,GND*%
%TO.N,GND*%
X354838000Y-276098000D03*
D13*
%TO.P,X1,3,SDA*%
%TO.N,unconnected-(X1-SDA-Pad3)*%
X357378000Y-273558000D03*
%TO.P,X1,4,SCL*%
%TO.N,unconnected-(X1-SCL-Pad4)*%
X357378000Y-276098000D03*
D15*
%TO.P,X1,5,GPIO1*%
%TO.N,unconnected-(X1-GPIO1-Pad5)*%
X359918000Y-273558000D03*
%TO.P,X1,6,GPIO2*%
%TO.N,unconnected-(X1-GPIO2-Pad6)*%
X359918000Y-276098000D03*
%TD*%
D10*
%TO.P,SW2,1,1*%
%TO.N,GND*%
X443484000Y-315671200D03*
X449984000Y-315671200D03*
%TO.P,SW2,2,2*%
%TO.N,Net-(J2-D33)*%
X443484000Y-320171200D03*
X449984000Y-320171200D03*
%TD*%
%TO.P,SW4,1,1*%
%TO.N,GND*%
X433936000Y-308102000D03*
X440436000Y-308102000D03*
%TO.P,SW4,2,2*%
%TO.N,Net-(J1-RX0)*%
X433936000Y-312602000D03*
X440436000Y-312602000D03*
%TD*%
D11*
%TO.P,J5,1,SDA*%
%TO.N,Net-(J1-D21)*%
X421894000Y-342265000D03*
D12*
%TO.P,J5,2,SCL*%
%TO.N,Net-(J1-D22)*%
X421894000Y-339725000D03*
%TO.P,J5,3,GND*%
%TO.N,GND*%
X421894000Y-337185000D03*
%TO.P,J5,4,3v3*%
%TO.N,+3V3*%
X421894000Y-334645000D03*
%TD*%
D16*
%TO.P,BT1,1,VIN*%
%TO.N,Net-(BT1-VIN)*%
X379730000Y-313436000D03*
D17*
%TO.P,BT1,2,GND*%
%TO.N,Net-(BT1-GND)*%
X384330000Y-313436000D03*
%TD*%
D10*
%TO.P,SW1,1,1*%
%TO.N,GND*%
X443484000Y-300554000D03*
X449984000Y-300554000D03*
%TO.P,SW1,2,2*%
%TO.N,Net-(J2-D32)*%
X443484000Y-305054000D03*
X449984000Y-305054000D03*
%TD*%
D11*
%TO.P,J4,1,VCC*%
%TO.N,+3V3*%
X422910000Y-273050000D03*
D12*
%TO.P,J4,2,GND*%
%TO.N,GND*%
X420370000Y-273050000D03*
%TO.P,J4,3,SCL*%
%TO.N,Net-(J2-D14)*%
X417830000Y-273050000D03*
%TO.P,J4,4,SDA*%
%TO.N,Net-(J2-D13)*%
X415290000Y-273050000D03*
%TO.P,J4,5,DC*%
%TO.N,Net-(J1-D15)*%
X412750000Y-273050000D03*
%TO.P,J4,6,CS*%
%TO.N,Net-(J2-D27)*%
X410210000Y-273050000D03*
%TO.P,J4,7,RST*%
%TO.N,Net-(J2-D26)*%
X407670000Y-273050000D03*
%TD*%
D11*
%TO.P,J2,1,VIN*%
%TO.N,Net-(BT1-VIN)*%
X363843500Y-300457000D03*
D12*
%TO.P,J2,2,GND*%
%TO.N,Net-(BT1-GND)*%
X366383500Y-300457000D03*
%TO.P,J2,3,D13*%
%TO.N,Net-(J2-D13)*%
X368923500Y-300457000D03*
%TO.P,J2,4,D12*%
%TO.N,unconnected-(J2-D12-Pad4)*%
X371463500Y-300457000D03*
%TO.P,J2,5,D14*%
%TO.N,Net-(J2-D14)*%
X374003500Y-300457000D03*
%TO.P,J2,6,D27*%
%TO.N,Net-(J2-D27)*%
X376543500Y-300457000D03*
%TO.P,J2,7,D26*%
%TO.N,Net-(J2-D26)*%
X379083500Y-300457000D03*
%TO.P,J2,8,D25*%
%TO.N,unconnected-(J2-D25-Pad8)*%
X381623500Y-300457000D03*
%TO.P,J2,9,D33*%
%TO.N,Net-(J2-D33)*%
X384163500Y-300457000D03*
%TO.P,J2,10,D32*%
%TO.N,Net-(J2-D32)*%
X386703500Y-300457000D03*
%TO.P,J2,11,D35*%
%TO.N,unconnected-(J2-D35-Pad11)*%
X389243500Y-300457000D03*
%TO.P,J2,12,D34*%
%TO.N,unconnected-(J2-D34-Pad12)*%
X391783500Y-300457000D03*
%TO.P,J2,13,VN*%
%TO.N,unconnected-(J2-VN-Pad13)*%
X394323500Y-300457000D03*
%TO.P,J2,14,VP*%
%TO.N,unconnected-(J2-VP-Pad14)*%
X396863500Y-300457000D03*
%TO.P,J2,15,EN*%
%TO.N,unconnected-(J2-EN-Pad15)*%
X399403500Y-300457000D03*
%TD*%
D18*
%TO.N,Net-(J1-D19)*%
X414274000Y-331724000D03*
X419354000Y-331724000D03*
%TD*%
D19*
%TO.N,GND*%
X421894000Y-337185000D02*
X377661500Y-337185000D01*
X377661500Y-337185000D02*
X366383500Y-325907000D01*
%TO.N,Net-(J1-D5)*%
X411734000Y-320167000D02*
X381635000Y-320167000D01*
X411734000Y-325882000D02*
X411734000Y-320167000D01*
X381635000Y-320167000D02*
X381623500Y-320178500D01*
X381623500Y-320178500D02*
X381623500Y-325907000D01*
%TO.N,Net-(J2-D33)*%
X384163500Y-300457000D02*
X384163500Y-302757896D01*
X384163500Y-302757896D02*
X384175000Y-302769396D01*
X384175000Y-302769396D02*
X384175000Y-307340000D01*
X418596200Y-320171200D02*
X443484000Y-320171200D01*
X384175000Y-307340000D02*
X405765000Y-307340000D01*
X405765000Y-307340000D02*
X418596200Y-320171200D01*
%TO.N,Net-(BT1-VIN)*%
X363843500Y-300457000D02*
X363843500Y-309626000D01*
X363843500Y-309626000D02*
X375920000Y-309626000D01*
X375920000Y-309626000D02*
X379730000Y-313436000D01*
%TO.N,Net-(BT1-GND)*%
X378234000Y-307340000D02*
X384330000Y-313436000D01*
X366383500Y-300457000D02*
X366383500Y-307340000D01*
X366383500Y-307340000D02*
X378234000Y-307340000D01*
%TO.N,+3V3*%
X351536000Y-313690000D02*
X363753000Y-325907000D01*
X354838000Y-273558000D02*
X351536000Y-276860000D01*
X422910000Y-266446000D02*
X422910000Y-273050000D01*
X354838000Y-273558000D02*
X361950000Y-266446000D01*
X361950000Y-266446000D02*
X422910000Y-266446000D01*
X351536000Y-276860000D02*
X351536000Y-313690000D01*
%TO.N,GND*%
X357967400Y-274746600D02*
X358648000Y-274066000D01*
X420370000Y-273050000D02*
X420370000Y-277440000D01*
X353314000Y-312837500D02*
X366383500Y-325907000D01*
X443484000Y-315671200D02*
X449984000Y-315671200D01*
X453009000Y-308102000D02*
X449984000Y-311127000D01*
X358648000Y-274066000D02*
X358648000Y-271780000D01*
X354838000Y-276098000D02*
X353314000Y-277622000D01*
X362712000Y-267716000D02*
X420370000Y-267716000D01*
X453009000Y-308102000D02*
X459509000Y-308102000D01*
X420370000Y-277440000D02*
X443484000Y-300554000D01*
X461518000Y-308102000D02*
X461518000Y-325882000D01*
X459509000Y-308102000D02*
X461518000Y-308102000D01*
X443484000Y-300554000D02*
X449984000Y-300554000D01*
X449984000Y-300554000D02*
X453009000Y-303579000D01*
X358648000Y-271780000D02*
X362712000Y-267716000D01*
X449984000Y-311127000D02*
X449984000Y-315671200D01*
X354838000Y-276098000D02*
X356189400Y-274746600D01*
X443484000Y-311150000D02*
X443484000Y-315671200D01*
X356189400Y-274746600D02*
X357967400Y-274746600D01*
X420370000Y-267716000D02*
X420370000Y-273050000D01*
X433936000Y-308102000D02*
X440436000Y-308102000D01*
X353314000Y-277622000D02*
X353314000Y-312837500D01*
X453009000Y-303579000D02*
X453009000Y-308102000D01*
X440436000Y-308102000D02*
X443484000Y-311150000D01*
X421894000Y-325882000D02*
X461518000Y-325882000D01*
%TO.N,Net-(J1-D15)*%
X355600000Y-278638000D02*
X360172000Y-278638000D01*
X412750000Y-269240000D02*
X412750000Y-273050000D01*
X355600000Y-312583500D02*
X355600000Y-278638000D01*
X362204000Y-270510000D02*
X363474000Y-269240000D01*
X363474000Y-269240000D02*
X412750000Y-269240000D01*
X362204000Y-276606000D02*
X362204000Y-270510000D01*
X368923500Y-325907000D02*
X355600000Y-312583500D01*
X360172000Y-278638000D02*
X362204000Y-276606000D01*
%TO.N,Net-(J1-D18)*%
X384163500Y-325907000D02*
X384163500Y-329807500D01*
X384163500Y-329807500D02*
X387604000Y-333248000D01*
X416814000Y-333248000D02*
X416814000Y-325882000D01*
X387604000Y-333248000D02*
X416814000Y-333248000D01*
%TO.N,Net-(J1-D19)*%
X388874000Y-331724000D02*
X414274000Y-331724000D01*
X386703500Y-329553500D02*
X388874000Y-331724000D01*
X386703500Y-325907000D02*
X386703500Y-329553500D01*
X419354000Y-325882000D02*
X419354000Y-331724000D01*
%TO.N,Net-(J1-D23)*%
X399542000Y-329946000D02*
X414020000Y-329946000D01*
X414020000Y-329946000D02*
X414274000Y-329692000D01*
X399403500Y-329807500D02*
X399542000Y-329946000D01*
X414274000Y-329692000D02*
X414274000Y-325882000D01*
X399403500Y-325907000D02*
X399403500Y-329807500D01*
%TO.N,Net-(J2-D27)*%
X406744500Y-270256000D02*
X410210000Y-270256000D01*
X410210000Y-270256000D02*
X410210000Y-273050000D01*
X376543500Y-300457000D02*
X406744500Y-270256000D01*
%TO.N,Net-(J2-D26)*%
X379083500Y-300457000D02*
X406490500Y-273050000D01*
X406490500Y-273050000D02*
X407670000Y-273050000D01*
%TO.N,Net-(J2-D33)*%
X443484000Y-320171200D02*
X449984000Y-320171200D01*
%TO.N,Net-(J2-D32)*%
X449984000Y-305054000D02*
X443484000Y-305054000D01*
X386703500Y-304661500D02*
X387096000Y-305054000D01*
X386703500Y-300457000D02*
X386703500Y-304661500D01*
X387096000Y-305054000D02*
X443484000Y-305054000D01*
%TO.N,Net-(J1-TX0)*%
X453009000Y-312602000D02*
X459509000Y-312602000D01*
%TO.N,Net-(J1-RX0)*%
X433936000Y-312602000D02*
X440436000Y-312602000D01*
%TD*%
M02*
