%TF.GenerationSoftware,KiCad,Pcbnew,7.0.2-0*%
%TF.CreationDate,2023-06-19T18:33:07-07:00*%
%TF.ProjectId,FrogBadge,46726f67-4261-4646-9765-2e6b69636164,1.1*%
%TF.SameCoordinates,Original*%
%TF.FileFunction,Profile,NP*%
%FSLAX46Y46*%
G04 Gerber Fmt 4.6, Leading zero omitted, Abs format (unit mm)*
G04 Created by KiCad (PCBNEW 7.0.2-0) date 2023-06-19 18:33:07*
%MOMM*%
%LPD*%
G01*
G04 APERTURE LIST*
%ADD10C,1.400000*%
%TA.AperFunction,Profile*%
%ADD11C,0.100000*%
%TD*%
G04 APERTURE END LIST*
D10*
X345861612Y-244386165D02*
X345980490Y-242944248D01*
X346214038Y-241301672D01*
X346558119Y-239828872D01*
X347095299Y-238315045D01*
X347874798Y-236852564D01*
X348945841Y-235533805D01*
X350357650Y-234451143D01*
X350769616Y-234228193D01*
X349310440Y-255629719D02*
X348630345Y-254398210D01*
X348001865Y-253123007D01*
X347312157Y-251533600D01*
X346813941Y-250192129D01*
X346378229Y-248766831D01*
X346046572Y-247297524D01*
X345860516Y-245824029D01*
X345861612Y-244386165D01*
X333249370Y-302334318D02*
X333306466Y-300886445D01*
X333412072Y-299448390D01*
X333565630Y-298021140D01*
X333766581Y-296605682D01*
X334014368Y-295203004D01*
X334308433Y-293814091D01*
X334648219Y-292439932D01*
X335033166Y-291081513D01*
X335462718Y-289739822D01*
X335936316Y-288415845D01*
X336453403Y-287110569D01*
X337013420Y-285824982D01*
X337615810Y-284560070D01*
X338260016Y-283316821D01*
X339671639Y-280899259D01*
X340437942Y-279726920D01*
X341243828Y-278580192D01*
X342088740Y-277460062D01*
X342972119Y-276367516D01*
X343893408Y-275303543D01*
X344852049Y-274269128D01*
X345847484Y-273265260D01*
X346879155Y-272292924D01*
X347946505Y-271353109D01*
X349048975Y-270446801D01*
X350186007Y-269574987D01*
X351357044Y-268738654D01*
X352561528Y-267938790D01*
X353798900Y-267176381D01*
X355068604Y-266452415D01*
X356370081Y-265767878D01*
X371086098Y-215412094D02*
X371826241Y-213683516D01*
X372589519Y-212013755D01*
X373372470Y-210402707D01*
X374171633Y-208850270D01*
X374983548Y-207356341D01*
X375804755Y-205920818D01*
X376631792Y-204543598D01*
X377461199Y-203224577D01*
X378289516Y-201963654D01*
X379113282Y-200760725D01*
X379929037Y-199615688D01*
X381130076Y-198006455D01*
X382293624Y-196526900D01*
X383408000Y-195176678D01*
X383766514Y-194755285D01*
X365719069Y-236273428D02*
X365829276Y-234608253D01*
X365980578Y-232978034D01*
X366186893Y-231349860D01*
X366462138Y-229690820D01*
X366820230Y-227968005D01*
X367275085Y-226148504D01*
X367840621Y-224199406D01*
X368286007Y-222811757D01*
X368790894Y-221342131D01*
X369359404Y-219780778D01*
X369995663Y-218117946D01*
X370703792Y-216343883D01*
X371086098Y-215412094D01*
X468848019Y-266951853D02*
X470166925Y-268144619D01*
X471326062Y-269255264D01*
X472663028Y-270612183D01*
X474138340Y-272210146D01*
X475712514Y-274043922D01*
X477346068Y-276108282D01*
X478999517Y-278397997D01*
X479821365Y-279625729D01*
X480633380Y-280907837D01*
X481430628Y-282243669D01*
X482208173Y-283632572D01*
X482961080Y-285073890D01*
X483684413Y-286566972D01*
X484373237Y-288111162D01*
X485022616Y-289705807D01*
X485627616Y-291350254D01*
X486183300Y-293043848D01*
X486684734Y-294785937D01*
X487126981Y-296575866D01*
X487505107Y-298412981D01*
X487814177Y-300296629D01*
X488049254Y-302226157D01*
X488205403Y-304200910D01*
X488277690Y-306220235D01*
D11*
X476980000Y-236728000D02*
G75*
G03*
X476980000Y-236728000I-2000000J0D01*
G01*
D10*
X362087088Y-344875046D02*
X362572830Y-343213295D01*
X363058572Y-341551547D01*
X363544315Y-339889802D01*
X364030057Y-338228057D01*
X364515799Y-336566312D01*
X365001542Y-334904567D01*
X365487284Y-333242819D01*
X365973027Y-331581069D01*
X438783155Y-178802507D02*
X440567638Y-179040334D01*
X442287788Y-179509400D01*
X443924587Y-180189529D01*
X445459011Y-181060542D01*
X446872043Y-182102261D01*
X448144661Y-183294509D01*
X449257844Y-184617109D01*
X450192573Y-186049882D01*
X450929828Y-187572650D01*
X451450587Y-189165237D01*
X451668092Y-190255786D01*
X351860947Y-338125803D02*
X350666980Y-337247592D01*
X349001250Y-335882208D01*
X347619618Y-334640992D01*
X346080580Y-333138478D01*
X344435146Y-331377638D01*
X342734326Y-329361448D01*
X341029128Y-327092882D01*
X340190828Y-325864887D01*
X339370562Y-324574913D01*
X338574706Y-323223332D01*
X337809637Y-321810516D01*
X337081730Y-320336835D01*
X336397363Y-318802663D01*
X335762910Y-317208371D01*
X335184749Y-315554331D01*
X334669255Y-313840913D01*
X334222804Y-312068491D01*
X333851773Y-310237436D01*
X333562538Y-308348119D01*
X333361475Y-306400912D01*
X333254960Y-304396188D01*
X333249370Y-302334318D01*
X488277690Y-306220235D02*
X488287554Y-307823501D01*
X488262287Y-309258729D01*
X488185073Y-310870022D01*
X488034360Y-312636269D01*
X487788594Y-314536356D01*
X487426222Y-316549171D01*
X487109216Y-317943249D01*
X486724420Y-319371789D01*
X486265448Y-320828536D01*
X485725914Y-322307235D01*
X485099432Y-323801630D01*
X484379615Y-325305465D01*
X483982711Y-326058968D01*
X383766514Y-194755285D02*
X383579085Y-193340559D01*
X383564607Y-191252445D01*
X383851057Y-189229011D01*
X384416983Y-187297157D01*
X385240931Y-185483783D01*
X386301448Y-183815788D01*
X387577081Y-182320072D01*
X389046375Y-181023533D01*
X390687879Y-179953072D01*
X392480139Y-179135588D01*
X394401702Y-178597981D01*
X442464573Y-348965494D02*
X439619446Y-349549997D01*
X436787388Y-350072576D01*
X433969242Y-350534829D01*
X431165852Y-350938351D01*
X428378061Y-351284739D01*
X425606713Y-351575591D01*
X422852652Y-351812502D01*
X420116721Y-351997070D01*
X417399765Y-352130891D01*
X414702626Y-352215562D01*
X412026149Y-352252680D01*
X409371177Y-352243841D01*
X406738554Y-352190641D01*
X404129123Y-352094679D01*
X401543728Y-351957549D01*
X398983214Y-351780850D01*
X396448423Y-351566177D01*
X393940199Y-351315128D01*
X391459386Y-351029299D01*
X389006828Y-350710287D01*
X386583368Y-350359688D01*
X384189850Y-349979099D01*
X381827117Y-349570118D01*
X379496014Y-349134339D01*
X377197384Y-348673361D01*
X374932071Y-348188781D01*
X372700918Y-347682193D01*
X370504769Y-347155196D01*
X368344468Y-346609386D01*
X366220858Y-346046360D01*
X364134783Y-345467714D01*
X362087088Y-344875046D01*
X451668092Y-190255786D02*
X451787221Y-191700202D01*
X451708927Y-193260363D01*
X451462738Y-194658572D01*
X451064823Y-196021379D01*
X450850000Y-196596000D01*
X423852994Y-190460306D02*
X424460699Y-188489497D01*
X425296653Y-186659166D01*
X426338566Y-184983558D01*
X427564152Y-183476920D01*
X428951122Y-182153498D01*
X430477191Y-181027536D01*
X432120069Y-180113282D01*
X433857470Y-179424980D01*
X435667106Y-178976877D01*
X437526690Y-178783219D01*
X438783155Y-178802507D01*
X394401702Y-178597981D02*
X395810536Y-178402827D01*
X397214663Y-178366043D01*
X399289296Y-178593708D01*
X401294886Y-179141440D01*
X403196362Y-179987476D01*
X404958654Y-181110058D01*
X406038871Y-182001337D01*
X407031250Y-182999405D01*
X407925399Y-184097817D01*
X408710928Y-185290123D01*
X409377444Y-186569877D01*
X409914557Y-187930632D01*
X410311874Y-189365939D01*
X410559006Y-190869352D01*
X479074160Y-255294059D02*
X478240753Y-256501005D01*
X477290748Y-257803416D01*
X476218893Y-259189312D01*
X475331878Y-260276317D01*
X474371151Y-261398491D01*
X473334496Y-262550782D01*
X472219698Y-263728136D01*
X471024541Y-264925501D01*
X469746809Y-266137824D01*
X468848019Y-266951853D01*
X410559006Y-190869352D02*
X412220754Y-190818222D01*
X413882502Y-190767092D01*
X415544251Y-190715961D01*
X417206000Y-190664831D01*
X418867748Y-190613700D01*
X420529497Y-190562569D01*
X422191245Y-190511437D01*
X423852994Y-190460306D01*
X356370081Y-265767878D02*
X355235521Y-264701891D01*
X354149947Y-263431756D01*
X353299657Y-262274278D01*
X352451403Y-260995774D01*
X351592155Y-259600524D01*
X350708885Y-258092807D01*
X349788565Y-256476903D01*
X349310440Y-255629719D01*
X483982711Y-326058968D02*
X483164686Y-327477370D01*
X482289555Y-328832112D01*
X481359936Y-330125026D01*
X480378445Y-331357945D01*
X479347700Y-332532704D01*
X478270319Y-333651136D01*
X477148920Y-334715073D01*
X475986120Y-335726349D01*
X474784538Y-336686798D01*
X473546789Y-337598253D01*
X472275493Y-338462547D01*
X470973267Y-339281514D01*
X469642728Y-340056987D01*
X468286495Y-340790800D01*
X466907184Y-341484785D01*
X465507413Y-342140776D01*
X464089801Y-342760607D01*
X462656964Y-343346110D01*
X461211521Y-343899120D01*
X459756088Y-344421469D01*
X458293284Y-344914992D01*
X456825726Y-345381520D01*
X455356033Y-345822889D01*
X453886820Y-346240930D01*
X452420707Y-346637478D01*
X450960311Y-347014365D01*
X449508249Y-347373426D01*
X448067139Y-347716493D01*
X446639599Y-348045400D01*
X445228246Y-348361980D01*
X443835698Y-348668067D01*
X442464573Y-348965494D01*
X365973027Y-331581069D02*
X364650018Y-332194639D01*
X363327010Y-332808208D01*
X362004002Y-333421777D01*
X360680995Y-334035345D01*
X359357987Y-334648913D01*
X358034980Y-335262481D01*
X356711972Y-335876049D01*
X355388965Y-336489617D01*
X354065958Y-337103186D01*
X352742951Y-337716756D01*
X351860947Y-338125803D01*
X479687732Y-234023673D02*
X480827318Y-234943645D01*
X481737433Y-236008573D01*
X482637660Y-237576776D01*
X483234809Y-239217435D01*
X483588808Y-240824696D01*
X483759583Y-242292708D01*
X483806689Y-243770644D01*
X483778191Y-244658866D01*
X350769616Y-234228193D02*
X352190076Y-233615063D01*
X353572725Y-233199062D01*
X355563144Y-232898584D01*
X357435937Y-232923118D01*
X359171575Y-233201547D01*
X360750526Y-233662753D01*
X362153261Y-234235619D01*
X363715705Y-235050216D01*
X365108870Y-235913008D01*
X365719069Y-236273428D01*
X461485193Y-214389482D02*
X462116796Y-216184346D01*
X462676528Y-218038244D01*
X463168681Y-219927055D01*
X463597551Y-221826654D01*
X463967432Y-223712918D01*
X464282619Y-225561724D01*
X464547407Y-227348949D01*
X464766089Y-229050469D01*
X464942962Y-230642161D01*
X465082319Y-232099901D01*
X465230407Y-233982584D01*
X465318242Y-235428184D01*
X465371132Y-236682469D01*
X483778191Y-244658866D02*
X483553300Y-246208665D01*
X483060010Y-247860946D01*
X482485497Y-249290329D01*
X481660512Y-250997046D01*
X480849584Y-252466841D01*
X479852246Y-254105329D01*
X479074160Y-255294059D01*
D11*
X357600000Y-236728000D02*
G75*
G03*
X357600000Y-236728000I-2000000J0D01*
G01*
D10*
X465371132Y-236682469D02*
X466664715Y-235572588D01*
X468022624Y-234639574D01*
X469426072Y-233883841D01*
X470856273Y-233305799D01*
X472294442Y-232905863D01*
X473721792Y-232684443D01*
X475575627Y-232667625D01*
X477332302Y-232969881D01*
X478947288Y-233592192D01*
X479687732Y-234023673D01*
X450850000Y-196596000D02*
X451760424Y-197673709D01*
X452723760Y-198872937D01*
X453727897Y-200193905D01*
X454760723Y-201636834D01*
X455810125Y-203201945D01*
X456863992Y-204889460D01*
X457910212Y-206699600D01*
X458597463Y-207974595D01*
X459272343Y-209304253D01*
X459931263Y-210688641D01*
X460570636Y-212127823D01*
X461186872Y-213621867D01*
X461485193Y-214389482D01*
M02*
